<?xml version="1.0" encoding="utf-8"?>
<!-- Generator: Adobe Illustrator 23.0.1, SVG Export Plug-In . SVG Version: 6.00 Build 0)  -->
<svg version="1.1" id="Capa_1" xmlns="http://www.w3.org/2000/svg" xmlns:xlink="http://www.w3.org/1999/xlink" x="0px" y="0px"
	 viewBox="0 0 214.3 60.9" style="enable-background:new 0 0 214.3 60.9;" xml:space="preserve">
<style type="text/css">
	.st0{fill:#726AC6;}
	.st1{fill:none;}
	.st2{fill:#FFFFFF;}
	.st3{fill:#493DD3;}
	.st4{fill:#0D021E;}
	.st5{stroke:#000000;stroke-width:2;stroke-miterlimit:10;}
	.st6{fill:#10284B;}
	.st7{fill:#FC6E6B;}
	.st8{fill:#FEDB62;}
	.st9{fill:#3720D1;}
	.st10{fill:#99D6CC;}
	.st11{fill:#6001D2;}
	.st12{fill:#188FFF;}
	.st13{fill:#1D2228;}
	.st14{fill:#CC008C;}
	.st15{fill:#FF6E0C;}
	.st16{fill:#009C94;}
	.st17{clip-path:url(#SVGID_4_);fill-rule:evenodd;clip-rule:evenodd;fill:#FFFFFF;}
	.st18{clip-path:url(#SVGID_6_);}
	.st19{clip-path:url(#SVGID_8_);fill:#FFFFFF;}
	.st20{clip-path:url(#SVGID_10_);}
	.st21{clip-path:url(#SVGID_12_);fill:#493DD3;}
	.st22{opacity:0.4;clip-path:url(#SVGID_16_);enable-background:new    ;}
	.st23{clip-path:url(#SVGID_18_);}
	.st24{clip-path:url(#SVGID_20_);fill:#2B2B3F;}
	.st25{clip-path:url(#SVGID_24_);fill-rule:evenodd;clip-rule:evenodd;fill:#FFFFFF;}
	.st26{clip-path:url(#SVGID_26_);}
	.st27{clip-path:url(#SVGID_28_);fill:#FFFFFF;}
	.st28{clip-path:url(#SVGID_30_);}
	.st29{clip-path:url(#SVGID_32_);fill:#3DBAD3;}
	.st30{opacity:0.4;clip-path:url(#SVGID_36_);enable-background:new    ;}
	.st31{clip-path:url(#SVGID_38_);}
	.st32{clip-path:url(#SVGID_44_);fill-rule:evenodd;clip-rule:evenodd;fill:#FFFFFF;}
	.st33{clip-path:url(#SVGID_46_);}
	.st34{clip-path:url(#SVGID_48_);fill:#FFFFFF;}
	.st35{clip-path:url(#SVGID_50_);}
	.st36{clip-path:url(#SVGID_52_);fill:#ECB556;}
	.st37{opacity:0.4;clip-path:url(#SVGID_56_);enable-background:new    ;}
	.st38{clip-path:url(#SVGID_58_);}
	.st39{clip-path:url(#SVGID_60_);fill:#2B2B3F;}
	.st40{clip-path:url(#SVGID_64_);fill-rule:evenodd;clip-rule:evenodd;fill:#FFFFFF;}
	.st41{clip-path:url(#SVGID_66_);}
	.st42{clip-path:url(#SVGID_68_);fill:#FFFFFF;}
	.st43{clip-path:url(#SVGID_70_);}
	.st44{clip-path:url(#SVGID_72_);fill:#252023;}
	.st45{opacity:0.4;clip-path:url(#SVGID_74_);enable-background:new    ;}
	.st46{clip-path:url(#SVGID_76_);}
	.st47{clip-path:url(#SVGID_82_);fill-rule:evenodd;clip-rule:evenodd;fill:#FFFFFF;}
	.st48{clip-path:url(#SVGID_84_);}
	.st49{clip-path:url(#SVGID_86_);fill:#FFFFFF;}
	.st50{clip-path:url(#SVGID_88_);}
	.st51{clip-path:url(#SVGID_90_);fill:#BDB9BB;}
	.st52{opacity:0.4;clip-path:url(#SVGID_92_);enable-background:new    ;}
	.st53{clip-path:url(#SVGID_94_);}
	.st54{clip-path:url(#SVGID_100_);fill-rule:evenodd;clip-rule:evenodd;fill:#FFFFFF;}
	.st55{clip-path:url(#SVGID_102_);}
	.st56{clip-path:url(#SVGID_104_);fill:#FFFFFF;}
	.st57{clip-path:url(#SVGID_106_);}
	.st58{clip-path:url(#SVGID_108_);fill:#E1DDDF;}
	.st59{opacity:0.4;clip-path:url(#SVGID_110_);enable-background:new    ;}
	.st60{clip-path:url(#SVGID_112_);}
	.st61{clip-path:url(#SVGID_118_);fill-rule:evenodd;clip-rule:evenodd;fill:#FFFFFF;}
	.st62{clip-path:url(#SVGID_120_);}
	.st63{clip-path:url(#SVGID_122_);fill:#FFFFFF;}
	.st64{clip-path:url(#SVGID_124_);}
	.st65{clip-path:url(#SVGID_126_);fill:#EBEBEB;}
	.st66{opacity:0.4;clip-path:url(#SVGID_128_);enable-background:new    ;}
	.st67{clip-path:url(#SVGID_130_);}
	.st68{clip-path:url(#SVGID_136_);fill-rule:evenodd;clip-rule:evenodd;fill:#FFFFFF;}
	.st69{clip-path:url(#SVGID_138_);}
	.st70{clip-path:url(#SVGID_140_);fill:#FFFFFF;}
	.st71{clip-path:url(#SVGID_142_);}
	.st72{clip-path:url(#SVGID_144_);fill:#F5F5F5;}
	.st73{opacity:0.4;clip-path:url(#SVGID_146_);enable-background:new    ;}
	.st74{clip-path:url(#SVGID_148_);}
	.st75{clip-path:url(#SVGID_154_);fill-rule:evenodd;clip-rule:evenodd;fill:#FFFFFF;}
	.st76{clip-path:url(#SVGID_156_);}
	.st77{clip-path:url(#SVGID_158_);fill:#FFFFFF;}
	.st78{clip-path:url(#SVGID_160_);}
	.st79{clip-path:url(#SVGID_162_);fill:#767174;}
	.st80{opacity:0.4;clip-path:url(#SVGID_164_);enable-background:new    ;}
	.st81{clip-path:url(#SVGID_166_);}
	.st82{clip-path:url(#SVGID_172_);fill-rule:evenodd;clip-rule:evenodd;fill:#FFFFFF;}
	.st83{clip-path:url(#SVGID_174_);}
	.st84{clip-path:url(#SVGID_176_);fill:#FFFFFF;}
	.st85{clip-path:url(#SVGID_178_);}
	.st86{clip-path:url(#SVGID_180_);fill:#0013A0;}
	.st87{opacity:0.4;clip-path:url(#SVGID_182_);enable-background:new    ;}
	.st88{clip-path:url(#SVGID_184_);}
	.st89{clip-path:url(#SVGID_190_);fill-rule:evenodd;clip-rule:evenodd;fill:#FFFFFF;}
	.st90{clip-path:url(#SVGID_192_);}
	.st91{clip-path:url(#SVGID_194_);fill:#FFFFFF;}
	.st92{clip-path:url(#SVGID_196_);}
	.st93{clip-path:url(#SVGID_198_);fill:#8369FF;}
	.st94{opacity:0.4;clip-path:url(#SVGID_200_);enable-background:new    ;}
	.st95{clip-path:url(#SVGID_202_);}
	.st96{clip-path:url(#SVGID_204_);fill:#2B2B3F;}
	.st97{clip-path:url(#SVGID_208_);fill-rule:evenodd;clip-rule:evenodd;fill:#FFFFFF;}
	.st98{clip-path:url(#SVGID_210_);}
	.st99{clip-path:url(#SVGID_212_);fill:#FFFFFF;}
	.st100{clip-path:url(#SVGID_214_);}
	.st101{clip-path:url(#SVGID_216_);fill:#B998FF;}
	.st102{opacity:0.4;clip-path:url(#SVGID_218_);enable-background:new    ;}
	.st103{clip-path:url(#SVGID_220_);}
	.st104{clip-path:url(#SVGID_222_);fill:#2B2B3F;}
	.st105{clip-path:url(#SVGID_226_);fill-rule:evenodd;clip-rule:evenodd;fill:#FFFFFF;}
	.st106{clip-path:url(#SVGID_228_);}
	.st107{clip-path:url(#SVGID_230_);fill:#FFFFFF;}
	.st108{clip-path:url(#SVGID_232_);}
	.st109{clip-path:url(#SVGID_234_);fill:#E17575;}
	.st110{opacity:0.4;clip-path:url(#SVGID_236_);enable-background:new    ;}
	.st111{clip-path:url(#SVGID_238_);}
	.st112{clip-path:url(#SVGID_240_);fill:#2B2B3F;}
	.st113{clip-path:url(#SVGID_244_);fill-rule:evenodd;clip-rule:evenodd;fill:#FFFFFF;}
	.st114{clip-path:url(#SVGID_246_);}
	.st115{clip-path:url(#SVGID_248_);fill:#FFFFFF;}
	.st116{clip-path:url(#SVGID_250_);}
	.st117{clip-path:url(#SVGID_252_);fill:#98D1A2;}
	.st118{opacity:0.4;clip-path:url(#SVGID_254_);enable-background:new    ;}
	.st119{clip-path:url(#SVGID_256_);}
</style>
<g>
	<text transform="matrix(1 0 0 1 -2041.9697 556.4904)" style="font-family:'ArialMT'; font-size:12px;">https://trendier.atlassian.net/browse/GOT-1251?focusedCommentId=34834&amp;page=com.atlassian.jira.plugin.system.issuetabpanels%3Acomment-tabpanel#comment-34834</text>
</g>
<g id="Capa_3">
	<circle class="st0" cx="-1926.3" cy="300.5" r="24"/>
	<g>
		<path d="M-1876.2,306.8v5.1h-15.3v-25.4h5.1v20.3H-1876.2z"/>
		<path d="M-1875.3,299.2c0-7.3,5.9-13.2,13.2-13.2c7.3,0,13.2,6,13.2,13.2c0,7.2-6,13.1-13.2,13.1
			C-1869.3,312.4-1875.3,306.4-1875.3,299.2z M-1854,299.2c0-4.4-3.6-8.1-8.1-8.1c-4.4,0-8,3.6-8,8.1c0,4.4,3.6,8,8,8
			C-1857.6,307.2-1854,303.6-1854,299.2z"/>
		<path d="M-1830.2,306.8v5.1h-15.3v-25.4h5.1v20.3H-1830.2z"/>
		<path d="M-1811.9,308.3h-10.2l-1.6,3.5h-5.5l12.1-26h0.2l12.1,26h-5.5L-1811.9,308.3z M-1813.9,304l-3.1-6.8l-3.1,6.8H-1813.9z"/>
		<path d="M-1802.3,286.5h8.9c4.9,0,8.9,3.9,8.9,8.6c0,4.7-4,8.6-8.9,8.6h-3.8v8.3h-5.1L-1802.3,286.5L-1802.3,286.5z M-1789.5,295
			c0-1.9-1.7-3.5-3.8-3.5h-3.8v7h3.8C-1791.2,298.6-1789.5,297-1789.5,295z"/>
		<path d="M-1770.9,308.3h-10.1l-1.6,3.5h-5.5l12.1-26h0.2l12.1,26h-5.5L-1770.9,308.3z M-1772.8,304l-3.1-6.8l-3.1,6.8H-1772.8z"/>
		<path d="M-1760.7,301l-7.9-14.5h5.8l4.6,8.8l4.6-8.8h5.8l-7.9,14.5v10.9h-5.1V301H-1760.7z"/>
	</g>
	<rect x="-1893.8" y="108.5" class="st1" width="326.8" height="128.8"/>
	<text transform="matrix(1 0 0 1 -1893.7266 133.8688)" style="font-family:'LEMONMILK-Medium'; font-size:32.2613px;">LOLAPAY</text>
	<g>
		<path d="M-1762,770.9v4h-15.3v-25.4h4v21.4H-1762z"/>
		<path d="M-1761.1,762.2c0-7.2,5.9-13.2,13.1-13.2s13.1,5.9,13.1,13.2c0,7.2-5.9,13.1-13.1,13.1
			C-1755.2,775.3-1761.1,769.4-1761.1,762.2z M-1738.9,762.2c0-5-4.1-9.1-9.1-9.1s-9.1,4.1-9.1,9.1s4.1,9.1,9.1,9.1
			S-1738.9,767.2-1738.9,762.2z"/>
		<path d="M-1715.9,770.9v4h-15.3v-25.4h4v21.4H-1715.9z"/>
		<path d="M-1696.5,771h-12l-1.7,3.9h-4.3l11.9-25.9h0.2l11.9,25.9h-4.3L-1696.5,771z M-1698.1,767.6l-4.5-9.9l-4.5,9.9H-1698.1z"/>
		<path d="M-1687.6,749.5h8.5c4.9,0,8.9,3.8,8.9,8.4c0,4.5-4,8.2-8.9,8.2h-4.5v8.8h-4V749.5z M-1674.2,757.8c0-2.4-2.2-4.4-4.9-4.4
			h-4.5v8.7h4.5C-1676.4,762.2-1674.2,760.2-1674.2,757.8z"/>
		<path d="M-1655.8,771h-12l-1.7,3.9h-4.3l11.9-25.9h0.2l11.9,25.9h-4.3L-1655.8,771z M-1657.3,767.6l-4.5-9.9l-4.5,9.9H-1657.3z"/>
		<path d="M-1646.1,764l-8.4-14.5h4.5l5.9,10.1l5.9-10.1h4.5l-8.4,14.5v10.8h-4V764z"/>
	</g>
	<g>
		<path d="M-2242.6,554v4.4h-13.2v-21.9h4.4V554H-2242.6z"/>
		<path d="M-2241.7,547.4c0-6.3,5.1-11.4,11.4-11.4c6.2,0,11.4,5.1,11.4,11.4c0,6.2-5.1,11.3-11.4,11.3
			C-2236.6,558.7-2241.7,553.6-2241.7,547.4z M-2223.4,547.4c0-3.8-3.1-6.9-6.9-6.9s-6.9,3.1-6.9,6.9s3.1,6.9,6.9,6.9
			C-2226.6,554.3-2223.4,551.2-2223.4,547.4z"/>
		<path d="M-2203,554v4.4h-13.2v-21.9h4.4V554H-2203z"/>
		<path d="M-2187.2,555.3h-8.7l-1.4,3.1h-4.7l10.4-22.4h0.1l10.5,22.4h-4.8L-2187.2,555.3z M-2188.9,551.5l-2.7-5.8l-2.7,5.8
			H-2188.9z"/>
		<path d="M-2178.9,536.5h7.7c4.2,0,7.7,3.3,7.7,7.4c0,4.1-3.5,7.4-7.7,7.4h-3.3v7.1h-4.4V536.5L-2178.9,536.5z M-2167.9,543.8
			c0-1.7-1.5-3-3.3-3h-3.3v6h3.3C-2169.4,546.9-2167.9,545.5-2167.9,543.8z"/>
		<path d="M-2151.9,555.3h-8.7l-1.4,3.1h-4.7l10.4-22.4h0.1l10.5,22.4h-4.8L-2151.9,555.3z M-2153.6,551.5l-2.7-5.8l-2.7,5.8
			H-2153.6z"/>
		<path d="M-2143.1,548.9l-6.8-12.5h5l4,7.6l4-7.6h5l-6.8,12.5v9.4h-4.4V548.9L-2143.1,548.9z"/>
	</g>
	<g>
		<path d="M-2547.6,554v4.4h-13.2v-21.9h4.4V554H-2547.6z"/>
		<path d="M-2546.7,547.4c0-6.3,5.1-11.4,11.4-11.4c6.2,0,11.4,5.1,11.4,11.4c0,6.2-5.1,11.3-11.4,11.3
			C-2541.6,558.7-2546.7,553.6-2546.7,547.4z M-2528.4,547.4c0-3.8-3.1-6.9-6.9-6.9s-6.9,3.1-6.9,6.9s3.1,6.9,6.9,6.9
			C-2531.6,554.3-2528.4,551.2-2528.4,547.4z"/>
		<path d="M-2508,554v4.4h-13.2v-21.9h4.4V554H-2508z"/>
		<path d="M-2492.2,555.3h-8.7l-1.4,3.1h-4.7l10.4-22.4h0.1l10.5,22.4h-4.8L-2492.2,555.3z M-2493.9,551.5l-2.7-5.8l-2.7,5.8
			H-2493.9z"/>
		<path d="M-2483.9,536.5h7.7c4.2,0,7.7,3.3,7.7,7.4c0,4.1-3.5,7.4-7.7,7.4h-3.3v7.1h-4.4V536.5L-2483.9,536.5z M-2472.9,543.8
			c0-1.7-1.5-3-3.3-3h-3.3v6h3.3C-2474.4,546.9-2472.9,545.5-2472.9,543.8z"/>
		<path d="M-2456.9,555.3h-8.7l-1.4,3.1h-4.7l10.4-22.4h0.1l10.5,22.4h-4.8L-2456.9,555.3z M-2458.6,551.5l-2.7-5.8l-2.7,5.8
			H-2458.6z"/>
		<path d="M-2448.1,548.9l-6.8-12.5h5l4,7.6l4-7.6h5l-6.8,12.5v9.4h-4.4V548.9L-2448.1,548.9z"/>
	</g>
	<g>
		<path d="M-2167,247c0.8,0,1.6,0,2.3,0c0.3,0,0.3-0.1,0.3-0.3c0.1-4.3,1.5-8.1,4.2-11.4c3.2-3.9,7.3-6.2,12.2-6.8
			c7-0.8,12.7,1.7,17.1,7.1c0.2,0.2,0.2,0.4,0,0.6c-0.5,0.6-0.9,1.2-1.4,1.8c0,0,0,0-0.1,0c-0.9-1.4-2.1-2.6-3.4-3.7
			c-3.3-2.6-7-3.8-11.2-3.4c-7.3,0.6-13,5.7-14.5,12.9c-0.2,0.9-0.3,1.8-0.3,2.7c0,0.3,0.1,0.3,0.3,0.3c0.8,0,1.5,0,2.4,0
			c-0.8,1-1.5,1.9-2.2,2.9c-0.5,0.7-1.1,1.4-1.6,2.1c-0.2,0.3-0.3,0.2-0.5,0c-1.2-1.6-2.3-3.1-3.5-4.7
			C-2166.8,247.3-2166.9,247.1-2167,247C-2167,247.1-2167,247.1-2167,247z"/>
		<path d="M-2124.2,247.1c-0.8,0-1.6,0-2.3,0c-0.3,0-0.3,0.1-0.3,0.3c-0.1,4.3-1.4,8.1-4.1,11.4c-3.2,3.9-7.2,6.3-12.2,6.8
			c-7,0.8-12.7-1.7-17.1-7.1c-0.2-0.2-0.2-0.4,0-0.6c0.5-0.6,0.9-1.2,1.4-1.8c0,0,0,0,0.1,0c0.9,1.3,1.8,2.4,3,3.4
			c3.6,3,7.7,4.2,12.4,3.6c6.9-0.9,12.5-6.3,13.7-13.2c0.1-0.8,0.2-1.6,0.2-2.4c0-0.3-0.1-0.3-0.3-0.3c-0.8,0-1.5,0-2.3,0
			c0.7-1,1.4-1.9,2.1-2.8c0.6-0.7,1.1-1.5,1.7-2.2c0.2-0.3,0.3-0.2,0.5,0c1.2,1.6,2.3,3.1,3.5,4.7
			C-2124.4,246.8-2124.4,247-2124.2,247.1C-2124.2,247-2124.2,247-2124.2,247.1z"/>
	</g>
	<circle class="st0" cx="-2017.9" cy="332.5" r="24"/>
	<g>
		<path d="M-2029.6,348c0.4-0.6,0.9-1.1,1.3-1.7c0.1-0.2,0.2-0.2,0.4-0.1c3.1,2.3,6.7,3.4,10.5,3.2c4.6-0.2,8.5-1.8,11.7-5.2
			c4.4-4.6,5.7-10.1,4.2-16.3c-0.1-0.3-0.2-0.4-0.5-0.4c-0.7,0-1.4,0-2.1,0c0,0,0,0-0.1,0c0.5,1.4,0.8,2.9,0.8,4.5
			c0.1,3.8-1.1,7.2-3.7,10c-4.5,5-11.3,6.3-17.3,3.4c-0.8-0.4-1.5-0.8-2.2-1.3c-0.2-0.1-0.2-0.2-0.1-0.4c0.4-0.5,0.8-1.1,1.3-1.7
			c-1.1,0-2.2,0-3.3,0c-0.8,0-1.6,0-2.4,0c-0.3,0-0.4,0.1-0.3,0.4c0.5,1.7,1,3.4,1.5,5.1C-2029.7,347.8-2029.6,347.9-2029.6,348
			C-2029.7,348-2029.7,348-2029.6,348z"/>
		<path d="M-2006.1,316.9c-0.4,0.6-0.9,1.1-1.3,1.7c-0.1,0.2-0.2,0.2-0.4,0.1c-3.1-2.3-6.7-3.4-10.5-3.3c-4.6,0.2-8.5,1.8-11.7,5.1
			c-4.4,4.6-5.7,10.1-4.3,16.3c0.1,0.3,0.2,0.4,0.5,0.4c0.7,0,1.4,0,2.1,0c0,0,0,0,0.1,0c-0.4-1.3-0.7-2.7-0.8-4.1
			c-0.2-4.3,1.2-7.9,4.2-11c4.5-4.6,11.5-5.6,17.1-2.7c0.7,0.3,1.3,0.7,1.9,1.1c0.2,0.1,0.2,0.2,0.1,0.4c-0.4,0.5-0.8,1.1-1.3,1.7
			c1.1,0,2.1,0,3.2,0c0.8,0,1.7,0,2.5,0c0.3,0,0.4-0.1,0.3-0.4c-0.5-1.7-1-3.4-1.5-5.1C-2006,317.2-2006.1,317.1-2006.1,316.9
			C-2006.1,317-2006.1,317-2006.1,316.9z"/>
	</g>
	<circle class="st0" cx="-2254.5" cy="294" r="22.5"/>
	<g>
		<path class="st2" d="M-1911,292.6l-1.1,0.9c2.1,4.1,2.4,9.2,0.1,14.2c-2.1,4.4-6.2,7.6-11,8.5c-4.8,0.9-9.2-0.3-12.6-2.8l1.6-1.4
			l-5.1-1.7l0.9,5.3l1.6-1.4c2.9,2.2,6.6,3.6,10.7,3.5c7.6-0.1,14.3-5.3,16.3-12.6C-1908.4,300.7-1909,296.3-1911,292.6z"/>
		<path class="st2" d="M-1941.4,295.7c2-6.3,7.8-10.7,14.3-11c3.6-0.2,6.8,0.8,9.5,2.5l-1.2,1.3l5.3,1.1l-1.4-5.2l-1.7,1.8
			c-2.9-2-6.5-3.1-10.5-2.9c-7.3,0.3-13.8,5.4-15.7,12.5c-1.2,4.4-0.7,8.8,1.1,12.4l1.1-0.9
			C-1942.3,303.9-1942.7,299.8-1941.4,295.7z"/>
	</g>
	<g>
		<circle class="st3" cx="-1026" cy="210.5" r="24"/>
		<g>
			<path class="st2" d="M-1010.7,202.5l-1.1,0.9c2.1,4.1,2.4,9.2,0.1,14.2c-2.1,4.4-6.2,7.6-11,8.5c-4.8,0.9-9.2-0.3-12.6-2.8
				l1.6-1.4l-5.1-1.7l0.9,5.3l1.6-1.4c2.9,2.2,6.6,3.6,10.7,3.5c7.6-0.1,14.3-5.3,16.3-12.6
				C-1008.1,210.7-1008.7,206.2-1010.7,202.5z"/>
			<path class="st2" d="M-1041.1,205.7c2-6.3,7.8-10.7,14.3-11c3.6-0.2,6.8,0.8,9.5,2.5l-1.3,1.3l5.3,1.1l-1.4-5.2l-1.7,1.8
				c-2.9-2-6.5-3.1-10.5-2.9c-7.3,0.3-13.8,5.4-15.7,12.5c-1.2,4.4-0.7,8.8,1.1,12.4l1.1-0.9C-1042,213.8-1042.4,209.8-1041.1,205.7
				z"/>
		</g>
	</g>
	<g>
		<circle class="st3" cx="-1261.3" cy="210.5" r="24"/>
		<g>
			<path class="st4" d="M-1211.2,216.8v5.1h-15.3v-25.4h5.1v20.3H-1211.2z"/>
			<path class="st4" d="M-1210.3,209.2c0-7.3,5.9-13.2,13.2-13.2c7.3,0,13.2,6,13.2,13.2s-6,13.1-13.2,13.1
				C-1204.3,222.4-1210.3,216.4-1210.3,209.2z M-1189,209.2c0-4.4-3.6-8.1-8.1-8.1c-4.4,0-8,3.6-8,8.1c0,4.4,3.6,8,8,8
				C-1192.6,217.2-1189,213.6-1189,209.2z"/>
			<path class="st4" d="M-1165.2,216.8v5.1h-15.3v-25.4h5.1v20.3H-1165.2z"/>
			<path class="st4" d="M-1146.9,218.3h-10.2l-1.6,3.5h-5.5l12.1-26h0.2l12.1,26h-5.5L-1146.9,218.3z M-1148.9,214l-3.1-6.8
				l-3.1,6.8H-1148.9z"/>
			<path class="st4" d="M-1137.3,196.5h8.9c4.9,0,8.9,3.9,8.9,8.6s-4,8.6-8.9,8.6h-3.8v8.3h-5.1V196.5z M-1124.5,205
				c0-1.9-1.7-3.5-3.8-3.5h-3.8v7h3.8C-1126.2,208.6-1124.5,207-1124.5,205z"/>
			<path class="st4" d="M-1105.9,218.3h-10.1l-1.6,3.5h-5.5l12.1-26h0.2l12.1,26h-5.5L-1105.9,218.3z M-1107.8,214l-3.1-6.8
				l-3.1,6.8H-1107.8z"/>
			<path class="st4" d="M-1095.7,211l-7.9-14.5h5.8l4.6,8.8l4.6-8.8h5.8l-7.9,14.5v10.9h-5.1L-1095.7,211L-1095.7,211z"/>
		</g>
		<g>
			<path class="st2" d="M-1246,202.6l-1.1,0.9c2.1,4.1,2.4,9.2,0.1,14.2c-2.1,4.4-6.2,7.6-11,8.5c-4.8,0.9-9.2-0.3-12.6-2.8l1.6-1.4
				l-5.1-1.7l0.9,5.3l1.6-1.4c2.9,2.2,6.6,3.6,10.7,3.5c7.6-0.1,14.3-5.3,16.3-12.6C-1243.4,210.7-1244,206.3-1246,202.6z"/>
			<path class="st2" d="M-1276.4,205.7c2-6.3,7.8-10.7,14.3-11c3.6-0.2,6.8,0.8,9.5,2.5l-1.2,1.3l5.3,1.1l-1.4-5.2l-1.7,1.8
				c-2.9-2-6.5-3.1-10.5-2.9c-7.3,0.3-13.8,5.4-15.7,12.5c-1.2,4.4-0.7,8.8,1.1,12.4l1.1-0.9
				C-1277.3,213.9-1277.7,209.8-1276.4,205.7z"/>
		</g>
	</g>
	<circle class="st0" cx="-2598" cy="547.5" r="24"/>
	<g>
		<path class="st2" d="M-2582.7,539.5l-1.1,0.9c2.1,4.1,2.4,9.2,0.1,14.2c-2.1,4.4-6.2,7.6-11,8.5c-4.8,0.9-9.2-0.3-12.6-2.8
			l1.6-1.4l-5.1-1.7l0.9,5.3l1.6-1.4c2.9,2.2,6.6,3.6,10.7,3.5c7.6-0.1,14.3-5.3,16.3-12.6C-2580.1,547.7-2580.7,543.2-2582.7,539.5
			z"/>
		<path class="st2" d="M-2613.1,542.7c2-6.3,7.8-10.7,14.3-11c3.6-0.2,6.8,0.8,9.5,2.5l-1.2,1.3l5.3,1.1l-1.4-5.2l-1.7,1.8
			c-2.9-2-6.5-3.1-10.5-2.9c-7.3,0.3-13.8,5.4-15.7,12.5c-1.2,4.4-0.7,8.8,1.1,12.4l1.1-0.9C-2614,550.8-2614.4,546.8-2613.1,542.7z
			"/>
	</g>
	<g>
		<path d="M-2547.6,621v4.4h-13.2v-21.9h4.4V621H-2547.6z"/>
		<path d="M-2546.7,614.4c0-6.3,5.1-11.4,11.4-11.4c6.2,0,11.4,5.1,11.4,11.4c0,6.2-5.1,11.3-11.4,11.3
			C-2541.6,625.7-2546.7,620.6-2546.7,614.4z M-2528.4,614.4c0-3.8-3.1-6.9-6.9-6.9s-6.9,3.1-6.9,6.9s3.1,6.9,6.9,6.9
			C-2531.6,621.3-2528.4,618.2-2528.4,614.4z"/>
		<path d="M-2508,621v4.4h-13.2v-21.9h4.4V621H-2508z"/>
		<path d="M-2492.2,622.3h-8.7l-1.4,3.1h-4.7l10.4-22.4h0.1l10.5,22.4h-4.8L-2492.2,622.3z M-2493.9,618.5l-2.7-5.8l-2.7,5.8
			H-2493.9z"/>
		<path d="M-2483.9,603.5h7.7c4.2,0,7.7,3.3,7.7,7.4c0,4.1-3.5,7.4-7.7,7.4h-3.3v7.1h-4.4V603.5L-2483.9,603.5z M-2472.9,610.8
			c0-1.7-1.5-3-3.3-3h-3.3v6h3.3C-2474.4,613.9-2472.9,612.5-2472.9,610.8z"/>
		<path d="M-2456.9,622.3h-8.7l-1.4,3.1h-4.7l10.4-22.4h0.1l10.5,22.4h-4.8L-2456.9,622.3z M-2458.6,618.5l-2.7-5.8l-2.7,5.8
			H-2458.6z"/>
		<path d="M-2448.1,615.9l-6.8-12.5h5l4,7.6l4-7.6h5l-6.8,12.5v9.4h-4.4V615.9L-2448.1,615.9z"/>
	</g>
	<circle class="st0" cx="-2598" cy="614.5" r="24"/>
	<g>
		<path d="M-2582.7,606.5l-1.1,0.9c2.1,4.1,2.4,9.2,0.1,14.2c-2.1,4.4-6.2,7.6-11,8.5c-4.8,0.9-9.2-0.3-12.6-2.8l1.6-1.4l-5.1-1.7
			l0.9,5.3l1.6-1.4c2.9,2.2,6.6,3.6,10.7,3.5c7.6-0.1,14.3-5.3,16.3-12.6C-2580.1,614.7-2580.7,610.2-2582.7,606.5z"/>
		<path d="M-2613.1,609.7c2-6.3,7.8-10.7,14.3-11c3.6-0.2,6.8,0.8,9.5,2.5l-1.2,1.3l5.3,1.1l-1.4-5.2l-1.7,1.8
			c-2.9-2-6.5-3.1-10.5-2.9c-7.3,0.3-13.8,5.4-15.7,12.5c-1.2,4.4-0.7,8.8,1.1,12.4l1.1-0.9C-2614,617.8-2614.4,613.8-2613.1,609.7z
			"/>
	</g>
	<circle class="st0" cx="-2598" cy="685.5" r="24"/>
	<g>
		<path d="M-2582.7,677.5l-1.1,0.9c2.1,4.1,2.4,9.2,0.1,14.2c-2.1,4.4-6.2,7.6-11,8.5c-4.8,0.9-9.2-0.3-12.6-2.8l1.6-1.4l-5.1-1.7
			l0.9,5.3l1.6-1.4c2.9,2.2,6.6,3.6,10.7,3.5c7.6-0.1,14.3-5.3,16.3-12.6C-2580.1,685.7-2580.7,681.2-2582.7,677.5z"/>
		<path d="M-2613.1,680.7c2-6.3,7.8-10.7,14.3-11c3.6-0.2,6.8,0.8,9.5,2.5l-1.2,1.3l5.3,1.1l-1.4-5.2l-1.7,1.8
			c-2.9-2-6.5-3.1-10.5-2.9c-7.3,0.3-13.8,5.4-15.7,12.5c-1.2,4.4-0.7,8.8,1.1,12.4l1.1-0.9C-2614,688.8-2614.4,684.8-2613.1,680.7z
			"/>
	</g>
	<g>
		<path class="st5" d="M-2241.6,287l-0.9,0.7c1.7,3.4,2,7.6,0.1,11.7c-1.7,3.7-5.1,6.3-9.1,7c-4,0.7-7.6-0.2-10.4-2.3l1.3-1.1
			l-4.2-1.4l0.7,4.4l1.3-1.1c2.4,1.8,5.5,3,8.9,2.9c6.3-0.1,11.8-4.4,13.5-10.4C-2239.5,293.7-2240,290-2241.6,287z"/>
		<path class="st5" d="M-2266.8,289.5c1.6-5.2,6.4-8.9,11.8-9.1c2.9-0.1,5.6,0.7,7.8,2.1l-1,1.1l4.4,0.9l-1.2-4.3l-1.4,1.5
			c-2.4-1.6-5.4-2.5-8.6-2.4c-6.1,0.3-11.4,4.5-13,10.3c-1,3.6-0.6,7.2,0.9,10.3l0.9-0.7C-2267.5,296.3-2267.9,292.9-2266.8,289.5z"
			/>
	</g>
	<circle class="st0" cx="-2254.8" cy="229.1" r="22.5"/>
	<circle class="st0" cx="-1926" cy="223.5" r="24"/>
	<g>
		<path class="st2" d="M-1910.7,215.5l-1.1,0.9c2.1,4.1,2.4,9.2,0.1,14.2c-2.1,4.4-6.2,7.6-11,8.5c-4.8,0.9-9.2-0.3-12.6-2.8
			l1.6-1.4l-5.1-1.7l0.9,5.3l1.6-1.4c2.9,2.2,6.6,3.6,10.7,3.5c7.6-0.1,14.3-5.3,16.3-12.6C-1908.1,223.7-1908.7,219.2-1910.7,215.5
			z"/>
		<path class="st2" d="M-1941.1,218.7c2-6.3,7.8-10.7,14.3-11c3.6-0.2,6.8,0.8,9.5,2.5l-1.2,1.3l5.3,1.1l-1.4-5.2l-1.7,1.8
			c-2.9-2-6.5-3.1-10.5-2.9c-7.3,0.3-13.8,5.4-15.7,12.5c-1.2,4.4-0.7,8.8,1.1,12.4l1.1-0.9C-1942,226.8-1942.4,222.8-1941.1,218.7z
			"/>
	</g>
	<g>
		<path d="M-2253.8,217.4c1.2,0.1,2.4,0.4,3.4,0.8l-1.1,2.2l5.8-1.6l-1-2.3l0,0l0,0l-1.4-3.1l-0.9,1.9c-1.4-0.6-2.9-1-4.6-1.1
			c-8.4-0.7-15.8,5.6-16.5,14c-0.3,3.3,0.5,6.4,2.1,9.1l2.4-2.3c-1-1.9-1.5-4.2-1.3-6.5C-2266.2,221.8-2260.4,216.8-2253.8,217.4z"
			/>
		<path d="M-2242.6,220.2l-2.3,2.2c1.6,2.2,2.4,5,2.2,7.9c-0.5,6.6-6.4,11.6-13,11c-1.6-0.1-3.1-0.6-4.4-1.2l1.2-1.5l-6,0.2l1.2,5.9
			l1.7-2.1c1.8,1,3.9,1.7,6.2,1.9c8.4,0.7,15.8-5.6,16.5-14C-2239.2,226.8-2240.4,223.1-2242.6,220.2z"/>
	</g>
	<g>
		<circle class="st0" cx="-2288.5" cy="548" r="22.5"/>
		<g>
			<path class="st2" d="M-2287.5,535.6c1.3,0.1,2.5,0.4,3.6,0.9l-1.1,2.4l6.1-1.7l-1.1-2.4l0,0l0,0l-1.5-3.3l-1,2
				c-1.5-0.6-3.1-1-4.8-1.2c-8.8-0.7-16.6,5.9-17.3,14.7c-0.3,3.5,0.6,6.8,2.2,9.5l2.5-2.4c-1.1-2-1.6-4.4-1.4-6.8
				C-2300.6,540.2-2294.5,535-2287.5,535.6z"/>
			<path class="st2" d="M-2275.8,538.6l-2.4,2.4c1.6,2.3,2.5,5.2,2.3,8.3c-0.6,7-6.7,12.2-13.7,11.6c-1.7-0.1-3.2-0.6-4.6-1.3
				l1.2-1.5l-6.3,0.2l1.2,6.2l1.8-2.2c1.9,1.1,4.1,1.8,6.5,2c8.8,0.7,16.6-5.9,17.3-14.7C-2272.2,545.5-2273.5,541.7-2275.8,538.6z"
				/>
		</g>
	</g>
	<g>
		<path d="M-2242.6,621v4.4h-13.2v-21.9h4.4V621H-2242.6z"/>
		<path d="M-2241.7,614.4c0-6.3,5.1-11.4,11.4-11.4c6.2,0,11.4,5.1,11.4,11.4c0,6.2-5.1,11.3-11.4,11.3
			C-2236.6,625.7-2241.7,620.6-2241.7,614.4z M-2223.4,614.4c0-3.8-3.1-6.9-6.9-6.9s-6.9,3.1-6.9,6.9s3.1,6.9,6.9,6.9
			C-2226.6,621.3-2223.4,618.2-2223.4,614.4z"/>
		<path d="M-2203,621v4.4h-13.2v-21.9h4.4V621H-2203z"/>
		<path d="M-2187.2,622.3h-8.7l-1.4,3.1h-4.7l10.4-22.4h0.1l10.5,22.4h-4.8L-2187.2,622.3z M-2188.9,618.5l-2.7-5.8l-2.7,5.8
			H-2188.9z"/>
		<path d="M-2178.9,603.5h7.7c4.2,0,7.7,3.3,7.7,7.4c0,4.1-3.5,7.4-7.7,7.4h-3.3v7.1h-4.4V603.5L-2178.9,603.5z M-2167.9,610.8
			c0-1.7-1.5-3-3.3-3h-3.3v6h3.3C-2169.4,613.9-2167.9,612.5-2167.9,610.8z"/>
		<path d="M-2151.9,622.3h-8.7l-1.4,3.1h-4.7l10.4-22.4h0.1l10.5,22.4h-4.8L-2151.9,622.3z M-2153.6,618.5l-2.7-5.8l-2.7,5.8
			H-2153.6z"/>
		<path d="M-2143.1,615.9l-6.8-12.5h5l4,7.6l4-7.6h5l-6.8,12.5v9.4h-4.4V615.9L-2143.1,615.9z"/>
	</g>
	<g>
		<path d="M-2242.6,684v4.4h-13.2v-21.9h4.4V684H-2242.6z"/>
		<path d="M-2241.7,677.4c0-6.3,5.1-11.4,11.4-11.4c6.2,0,11.4,5.1,11.4,11.4c0,6.2-5.1,11.3-11.4,11.3
			C-2236.6,688.7-2241.7,683.6-2241.7,677.4z M-2223.4,677.4c0-3.8-3.1-6.9-6.9-6.9s-6.9,3.1-6.9,6.9s3.1,6.9,6.9,6.9
			C-2226.6,684.3-2223.4,681.2-2223.4,677.4z"/>
		<path d="M-2203,684v4.4h-13.2v-21.9h4.4V684H-2203z"/>
		<path d="M-2187.2,685.3h-8.7l-1.4,3.1h-4.7l10.4-22.4h0.1l10.5,22.4h-4.8L-2187.2,685.3z M-2188.9,681.5l-2.7-5.8l-2.7,5.8
			H-2188.9z"/>
		<path d="M-2178.9,666.5h7.7c4.2,0,7.7,3.3,7.7,7.4c0,4.1-3.5,7.4-7.7,7.4h-3.3v7.1h-4.4V666.5L-2178.9,666.5z M-2167.9,673.8
			c0-1.7-1.5-3-3.3-3h-3.3v6h3.3C-2169.4,676.9-2167.9,675.5-2167.9,673.8z"/>
		<path d="M-2151.9,685.3h-8.7l-1.4,3.1h-4.7l10.4-22.4h0.1l10.5,22.4h-4.8L-2151.9,685.3z M-2153.6,681.5l-2.7-5.8l-2.7,5.8
			H-2153.6z"/>
		<path d="M-2143.1,678.9l-6.8-12.5h5l4,7.6l4-7.6h5l-6.8,12.5v9.4h-4.4V678.9L-2143.1,678.9z"/>
	</g>
	<g>
		<circle class="st0" cx="-2288.5" cy="615" r="22.5"/>
		<g>
			<g>
				<path d="M-2288.2,602.7c1.2,0.1,2.3,0.4,3.3,0.8l-1,2.1l5.5-1.5l-1-2.2l0,0l0,0l-1.3-3l-0.9,1.8c-1.4-0.6-2.8-0.9-4.3-1.1
					c-8-0.7-15,5.3-15.7,13.3c-0.3,3.1,0.5,6.1,2,8.7l2.3-2.2c-1-1.9-1.4-4-1.3-6.2C-2300.1,606.9-2294.5,602.2-2288.2,602.7z"/>
			</g>
			<g>
				<path d="M-2289.5,626.5c-1.2-0.1-2.3-0.4-3.3-0.8l1-2.1l-5.5,1.5l1,2.2l0,0l0,0l1.3,3l0.9-1.8c1.4,0.6,2.8,0.9,4.3,1.1
					c8,0.7,15-5.3,15.7-13.3c0.3-3.1-0.5-6.1-2-8.7l-2.3,2.2c1,1.9,1.4,4,1.3,6.2C-2277.6,622.3-2283.2,627-2289.5,626.5z"/>
			</g>
		</g>
	</g>
	<g>
		<circle class="st0" cx="-2288.5" cy="549" r="22.5"/>
		<g>
			<g>
				<path class="st2" d="M-2288.2,536.7c1.2,0.1,2.3,0.4,3.3,0.8l-1,2.1l5.5-1.5l-1-2.2l0,0l0,0l-1.3-3l-0.9,1.8
					c-1.4-0.6-2.8-0.9-4.3-1.1c-8-0.7-15,5.3-15.7,13.3c-0.3,3.1,0.5,6.1,2,8.7l2.3-2.2c-1-1.9-1.4-4-1.3-6.2
					C-2300.1,540.9-2294.5,536.2-2288.2,536.7z"/>
			</g>
			<g>
				<path class="st2" d="M-2289.5,560.5c-1.2-0.1-2.3-0.4-3.3-0.8l1-2.1l-5.5,1.5l1,2.2l0,0l0,0l1.3,3l0.9-1.8
					c1.4,0.6,2.8,0.9,4.3,1.1c8,0.7,15-5.3,15.7-13.3c0.3-3.1-0.5-6.1-2-8.7l-2.3,2.2c1,1.9,1.4,4,1.3,6.2
					C-2277.6,556.3-2283.2,561-2289.5,560.5z"/>
			</g>
		</g>
	</g>
	<g>
		<circle class="st0" cx="-1812.5" cy="763" r="22.5"/>
		<g>
			<g>
				<path d="M-1812.2,750.7c1.2,0.1,2.3,0.4,3.3,0.8l-1,2.1l5.5-1.5l-1-2.2l0,0l0,0l-1.3-3l-0.9,1.8c-1.4-0.6-2.8-0.9-4.3-1.1
					c-8-0.7-15,5.3-15.7,13.3c-0.3,3.1,0.5,6.1,2,8.7l2.3-2.2c-1-1.9-1.4-4-1.3-6.2C-1824.1,754.9-1818.5,750.2-1812.2,750.7z"/>
			</g>
			<g>
				<path d="M-1813.5,774.5c-1.2-0.1-2.3-0.4-3.3-0.8l1-2.1l-5.5,1.5l1,2.2l0,0l0,0l1.3,3l0.9-1.8c1.4,0.6,2.8,0.9,4.3,1.1
					c8,0.7,15-5.3,15.7-13.3c0.3-3.1-0.5-6.1-2-8.7l-2.3,2.2c1,1.9,1.4,4,1.3,6.2C-1801.6,770.3-1807.2,775-1813.5,774.5z"/>
			</g>
		</g>
	</g>
	<g>
		<path d="M-1762,834.9v4h-15.3v-25.4h4v21.4H-1762z"/>
		<path d="M-1761.1,826.2c0-7.2,5.9-13.2,13.1-13.2s13.1,5.9,13.1,13.2c0,7.2-5.9,13.1-13.1,13.1
			C-1755.2,839.3-1761.1,833.4-1761.1,826.2z M-1738.9,826.2c0-5-4.1-9.1-9.1-9.1s-9.1,4.1-9.1,9.1s4.1,9.1,9.1,9.1
			S-1738.9,831.2-1738.9,826.2z"/>
		<path d="M-1715.9,834.9v4h-15.3v-25.4h4v21.4H-1715.9z"/>
		<path d="M-1696.5,835h-12l-1.7,3.9h-4.3l11.9-25.9h0.2l11.9,25.9h-4.3L-1696.5,835z M-1698.1,831.6l-4.5-9.9l-4.5,9.9H-1698.1z"/>
		<path d="M-1687.6,813.5h8.5c4.9,0,8.9,3.8,8.9,8.4c0,4.5-4,8.2-8.9,8.2h-4.5v8.8h-4V813.5z M-1674.2,821.8c0-2.4-2.2-4.4-4.9-4.4
			h-4.5v8.7h4.5C-1676.4,826.2-1674.2,824.2-1674.2,821.8z"/>
		<path d="M-1655.8,835h-12l-1.7,3.9h-4.3l11.9-25.9h0.2l11.9,25.9h-4.3L-1655.8,835z M-1657.3,831.6l-4.5-9.9l-4.5,9.9H-1657.3z"/>
		<path d="M-1646.1,828l-8.4-14.5h4.5l5.9,10.1l5.9-10.1h4.5l-8.4,14.5v10.8h-4V828z"/>
	</g>
	<g>
		<circle class="st0" cx="-1812.5" cy="827" r="22.5"/>
		<g>
			<g>
				<path class="st2" d="M-1812.2,814.7c1.2,0.1,2.3,0.4,3.3,0.8l-1,2.1l5.5-1.5l-1-2.2l0,0l0,0l-1.3-3l-0.9,1.8
					c-1.4-0.6-2.8-0.9-4.3-1.1c-8-0.7-15,5.3-15.7,13.3c-0.3,3.1,0.5,6.1,2,8.7l2.3-2.2c-1-1.9-1.4-4-1.3-6.2
					C-1824.1,818.9-1818.5,814.2-1812.2,814.7z"/>
			</g>
			<g>
				<path class="st2" d="M-1813.5,838.5c-1.2-0.1-2.3-0.4-3.3-0.8l1-2.1l-5.5,1.5l1,2.2l0,0l0,0l1.3,3l0.9-1.8
					c1.4,0.6,2.8,0.9,4.3,1.1c8,0.7,15-5.3,15.7-13.3c0.3-3.1-0.5-6.1-2-8.7l-2.3,2.2c1,1.9,1.4,4,1.3,6.2
					C-1801.6,834.3-1807.2,839-1813.5,838.5z"/>
			</g>
		</g>
	</g>
	<g>
		<g>
			<path d="M-1212,362.9v4h-15.3v-25.4h4v21.4H-1212z"/>
			<path d="M-1211.1,354.2c0-7.2,5.9-13.2,13.1-13.2c7.2,0,13.1,5.9,13.1,13.2c0,7.2-5.9,13.1-13.1,13.1
				C-1205.2,367.3-1211.1,361.4-1211.1,354.2z M-1188.9,354.2c0-5-4.1-9.1-9.1-9.1s-9.1,4.1-9.1,9.1s4.1,9.1,9.1,9.1
				S-1188.9,359.2-1188.9,354.2z"/>
			<path d="M-1165.9,362.9v4h-15.3v-25.4h4v21.4H-1165.9z"/>
			<path d="M-1146.5,363h-12l-1.7,3.9h-4.3l11.9-25.9h0.2l11.9,25.9h-4.3L-1146.5,363z M-1148.1,359.6l-4.5-9.9l-4.5,9.9H-1148.1z"
				/>
			<path d="M-1137.6,341.5h8.5c4.9,0,8.9,3.8,8.9,8.4c0,4.5-4,8.2-8.9,8.2h-4.5v8.8h-4V341.5z M-1124.2,349.8c0-2.4-2.2-4.4-4.9-4.4
				h-4.5v8.7h4.5C-1126.4,354.2-1124.2,352.2-1124.2,349.8z"/>
			<path d="M-1105.8,363h-12l-1.7,3.9h-4.3l11.9-25.9h0.2l11.9,25.9h-4.3L-1105.8,363z M-1107.3,359.6l-4.5-9.9l-4.5,9.9H-1107.3z"
				/>
			<path d="M-1096.1,356l-8.4-14.5h4.5l5.9,10.1l5.9-10.1h4.5l-8.4,14.5v10.8h-4V356z"/>
		</g>
		<g>
			<circle class="st0" cx="-1262.5" cy="355" r="22.5"/>
		</g>
	</g>
	<g>
		<g>
			<path d="M-1212,287.9v4h-15.3v-25.4h4v21.4H-1212z"/>
			<path d="M-1211.1,279.2c0-7.2,5.9-13.2,13.1-13.2c7.2,0,13.1,5.9,13.1,13.2c0,7.2-5.9,13.1-13.1,13.1
				C-1205.2,292.3-1211.1,286.4-1211.1,279.2z M-1188.9,279.2c0-5-4.1-9.1-9.1-9.1s-9.1,4.1-9.1,9.1s4.1,9.1,9.1,9.1
				S-1188.9,284.2-1188.9,279.2z"/>
			<path d="M-1165.9,287.9v4h-15.3v-25.4h4v21.4H-1165.9z"/>
			<path d="M-1146.5,288h-12l-1.7,3.9h-4.3l11.9-25.9h0.2l11.9,25.9h-4.3L-1146.5,288z M-1148.1,284.6l-4.5-9.9l-4.5,9.9H-1148.1z"
				/>
			<path d="M-1137.6,266.5h8.5c4.9,0,8.9,3.8,8.9,8.4c0,4.5-4,8.2-8.9,8.2h-4.5v8.8h-4V266.5z M-1124.2,274.8c0-2.4-2.2-4.4-4.9-4.4
				h-4.5v8.7h4.5C-1126.4,279.2-1124.2,277.2-1124.2,274.8z"/>
			<path d="M-1105.8,288h-12l-1.7,3.9h-4.3l11.9-25.9h0.2l11.9,25.9h-4.3L-1105.8,288z M-1107.3,284.6l-4.5-9.9l-4.5,9.9H-1107.3z"
				/>
			<path d="M-1096.1,281l-8.4-14.5h4.5l5.9,10.1l5.9-10.1h4.5l-8.4,14.5v10.8h-4V281z"/>
		</g>
		<g>
			<circle class="st0" cx="-1262.5" cy="280" r="22.5"/>
			<g>
				<g>
					<path class="st2" d="M-1262.2,267.7c1.2,0.1,2.3,0.4,3.3,0.8l-1,2.1l5.5-1.5l-1-2.2l0,0l0,0l-1.3-3l-0.9,1.8
						c-1.4-0.6-2.8-0.9-4.3-1.1c-8-0.7-15,5.3-15.7,13.3c-0.3,3.1,0.5,6.1,2,8.7l2.3-2.2c-1-1.9-1.4-4-1.3-6.2
						C-1274.1,271.9-1268.5,267.2-1262.2,267.7z"/>
				</g>
				<g>
					<path class="st2" d="M-1263.5,291.5c-1.2-0.1-2.3-0.4-3.3-0.8l1-2.1l-5.5,1.5l1,2.2l0,0l0,0l1.3,3l0.9-1.8
						c1.4,0.6,2.8,0.9,4.3,1.1c8,0.7,15-5.3,15.7-13.3c0.3-3.1-0.5-6.1-2-8.7l-2.3,2.2c1,1.9,1.4,4,1.3,6.2
						C-1251.6,287.3-1257.2,292-1263.5,291.5z"/>
				</g>
			</g>
		</g>
	</g>
	<g>
		<circle class="st0" cx="-2288.5" cy="677" r="22.5"/>
		<g>
			<path d="M-2287.5,664.6c1.3,0.1,2.5,0.4,3.6,0.9l-1.1,2.4l6.1-1.7l-1.1-2.4l0,0l0,0l-1.5-3.3l-1,2c-1.5-0.6-3.1-1-4.8-1.2
				c-8.8-0.7-16.6,5.9-17.3,14.7c-0.3,3.5,0.6,6.8,2.2,9.5l2.5-2.4c-1.1-2-1.6-4.4-1.4-6.8C-2300.6,669.2-2294.5,664-2287.5,664.6z"
				/>
			<path d="M-2275.8,667.6l-2.4,2.4c1.6,2.3,2.5,5.2,2.3,8.3c-0.6,7-6.7,12.2-13.7,11.6c-1.7-0.1-3.2-0.6-4.6-1.3l1.2-1.5l-6.3,0.2
				l1.2,6.2l1.8-2.2c1.9,1.1,4.1,1.8,6.5,2c8.8,0.7,16.6-5.9,17.3-14.7C-2272.2,674.5-2273.5,670.7-2275.8,667.6z"/>
		</g>
	</g>
	<circle class="st0" cx="-2311.5" cy="229" r="22.5"/>
	<g>
		<path d="M-2322.7,236c-1.3-2-2-4.4-2-7c0-7.3,5.9-13.2,13.2-13.2c1.9,0,3.7,0.4,5.4,1.2l2.4-2.7c-2.3-1.2-5-1.9-7.8-1.9
			c-9.2,0-16.8,7.5-16.8,16.8c0,3.6,1.2,7,3.1,9.7L-2322.7,236z"/>
		<path d="M-2301.3,220.5c1.9,2.3,3.1,5.3,3.1,8.5c0,7.3-5.9,13.2-13.2,13.2c-2.6,0-4.9-0.7-7-2l-2.3,2.7c2.7,1.8,5.9,2.8,9.3,2.8
			c9.2,0,16.8-7.5,16.8-16.8c0-4.3-1.6-8.2-4.3-11.1L-2301.3,220.5z"/>
	</g>
	<polygon points="-2302.4,216.6 -2305.6,210.8 -2308.6,218.9 	"/>
	<polygon points="-2321.8,240.4 -2320,246.7 -2315.3,239.6 	"/>
	<g>
		<path class="st2" d="M-1274.9,343.4c1.2-1.2,2.6-2.2,4.1-3c2.7-1.4,5.5-2,8.5-1.9c3.8,0.2,7.2,1.5,10.1,4c0.1,0.1,0.2,0.1,0.2,0.2
			c0.1-0.1,0.1-0.2,0.1-0.3c0-1,0-2,0-3c0-0.2,0-0.3,0.3-0.3c0.7,0,0.7,0,0.7,0.7c0,1.4,0,2.8,0,4.3c0,0.3-0.1,0.3-0.3,0.3
			c-1.5,0-3.1,0-4.6,0c-0.3,0-0.3-0.1-0.3-0.3c0-0.7,0-0.7,0.6-0.7c0.9,0,1.9,0,2.9,0c-0.2-0.2-0.3-0.3-0.5-0.4
			c-3.3-2.6-7.1-3.8-11.3-3.5c-3.7,0.3-7,1.8-9.7,4.4l-0.1,0.1C-1274.6,344.2-1274.9,343.9-1274.9,343.4z"/>
		<path class="st2" d="M-1251.9,367.8c-0.1,0.1-0.1,0.1-0.2,0.1c-0.8,0.7-1.6,1.2-2.4,1.8c-0.2,0.1-0.2,0.1-0.3-0.1
			c-0.4-0.6-0.4-0.6,0.2-1c0.6-0.4,1.3-0.9,1.8-1.4c0.2-0.2,0.3-0.2,0.4,0C-1252.2,367.5-1252.1,367.7-1251.9,367.8z"/>
		<path class="st2" d="M-1277.5,362.3c0.1,0,0.1,0.1,0.2,0.2c0.4,0.8,0.9,1.6,1.5,2.4c0.1,0.1,0.1,0.2,0,0.3c-0.6,0.5-0.6,0.5-1-0.1
			c-0.5-0.7-0.9-1.4-1.3-2.1c-0.1-0.2-0.1-0.3,0.1-0.3C-1277.8,362.5-1277.7,362.3-1277.5,362.3z"/>
		<path class="st2" d="M-1264.6,371.4c0,0.7,0,0.7-0.7,0.6c-0.9-0.1-1.7-0.3-2.5-0.5c-0.2-0.1-0.2-0.1-0.2-0.3
			c0.2-0.7,0.2-0.7,0.9-0.5c0.7,0.2,1.5,0.3,2.2,0.4C-1264.7,371.1-1264.6,371.1-1264.6,371.4z"/>
		<path class="st2" d="M-1274.9,343.4c0.2,0.3,0.2,0.7,0.7,0.6c-0.7,0.8-1.4,1.6-2,2.5c-0.1,0.1-0.1,0.2-0.3,0.1
			c-0.7-0.4-0.7-0.4-0.2-1C-1276.2,344.8-1275.6,344.1-1274.9,343.4z"/>
		<path class="st2" d="M-1270.8,369.2c-0.1,0.2-0.3,0.5-0.4,0.7c0,0.1-0.1,0-0.2,0c-0.9-0.5-1.7-1.1-2.5-1.7c-0.1-0.1-0.1-0.2,0-0.3
			c0.5-0.6,0.5-0.6,1-0.1c0.6,0.5,1.2,0.9,1.9,1.3C-1270.9,369.1-1270.8,369.1-1270.8,369.2z"/>
		<path class="st2" d="M-1261.1,372c-0.1,0-0.2,0-0.2-0.2c0-0.2,0-0.4-0.1-0.6c0-0.1,0.1-0.2,0.2-0.2c1-0.1,1.9-0.3,2.9-0.6
			c0.1,0,0.2,0,0.2,0.1c0.1,0.2,0.1,0.4,0.2,0.7c0,0.1,0,0.2-0.1,0.2C-1259,371.6-1260,371.9-1261.1,372z"/>
		<path class="st2" d="M-1278.9,352.7c-0.8-0.1-0.8-0.1-0.6-0.9c0.2-0.8,0.4-1.6,0.7-2.4c0.1-0.2,0.1-0.2,0.3-0.2
			c0.6,0.3,0.6,0.2,0.4,0.9c-0.3,0.7-0.5,1.5-0.6,2.3C-1278.7,352.6-1278.7,352.7-1278.9,352.7z"/>
		<path class="st2" d="M-1279.9,356.3c0-0.3,0-0.3,0.5-0.4c0.3,0,0.4,0.1,0.4,0.4c0,0.9,0.2,1.7,0.4,2.6c0.1,0.2,0,0.3-0.2,0.3
			c-0.7,0.2-0.7,0.2-0.8-0.5C-1279.7,358-1279.8,357.3-1279.9,356.3z"/>
	</g>
	<g>
		<circle class="st0" cx="-1026.5" cy="281" r="22.5"/>
		<g>
			<g>
				<path class="st2" d="M-1026.2,268.7c1.2,0.1,2.3,0.4,3.3,0.8l-1,2.1l5.5-1.5l-1-2.2l0,0l0,0l-1.3-3l-0.9,1.8
					c-1.4-0.6-2.8-0.9-4.3-1.1c-8-0.7-15,5.3-15.7,13.3c-0.3,3.1,0.5,6.1,2,8.7l2.3-2.2c-1-1.9-1.4-4-1.3-6.2
					C-1038.1,272.9-1032.5,268.2-1026.2,268.7z"/>
			</g>
			<g>
				<path class="st2" d="M-1027.5,292.5c-1.2-0.1-2.3-0.4-3.3-0.8l1-2.1l-5.5,1.5l1,2.2l0,0l0,0l1.3,3l0.9-1.8
					c1.4,0.6,2.8,0.9,4.3,1.1c8,0.7,15-5.3,15.7-13.3c0.3-3.1-0.5-6.1-2-8.7l-2.3,2.2c1,1.9,1.4,4,1.3,6.2
					C-1015.6,288.3-1021.2,293-1027.5,292.5z"/>
			</g>
		</g>
	</g>
</g>
<path class="st0" d="M-2051.7,1480.1h-49.9c-6.6,0-12-5.4-12-12v-49.9c0-6.6,5.4-12,12-12h49.9c6.6,0,12,5.4,12,12v49.9
	C-2039.7,1474.7-2045.1,1480.1-2051.7,1480.1z"/>
<path class="st3" d="M-2051.7,1378.5h-49.9c-6.6,0-12-5.4-12-12v-13c0-6.6,5.4-12,12-12h49.9c6.6,0,12,5.4,12,12v13
	C-2039.7,1373.1-2045.1,1378.5-2051.7,1378.5z"/>
<path class="st6" d="M-2093.3,1570h-8.3c-6.6,0-12-5.4-12-12v-49.9c0-6.6,5.4-12,12-12h8.3c6.6,0,12,5.4,12,12v49.9
	C-2081.3,1564.6-2086.7,1570-2093.3,1570z"/>
<path class="st7" d="M-2051.7,1570h-8.1c-6.6,0-12-5.4-12-12v-49.9c0-6.6,5.4-12,12-12h8.1c6.6,0,12,5.4,12,12v49.9
	C-2039.7,1564.6-2045.1,1570-2051.7,1570z"/>
<path class="st8" d="M-2009.1,1570h-8.1c-6.6,0-12-5.4-12-12v-49.9c0-6.6,5.4-12,12-12h8.1c6.6,0,12,5.4,12,12v49.9
	C-1997.1,1564.6-2002.5,1570-2009.1,1570z"/>
<path class="st9" d="M-1874.6,1480.1h-49.9c-6.6,0-12-5.4-12-12v-49.9c0-6.6,5.4-12,12-12h49.9c6.6,0,12,5.4,12,12v49.9
	C-1862.6,1474.7-1868,1480.1-1874.6,1480.1z"/>
<path class="st6" d="M-1916.2,1570h-8.3c-6.6,0-12-5.4-12-12v-49.9c0-6.6,5.4-12,12-12h8.3c6.6,0,12,5.4,12,12v49.9
	C-1904.2,1564.6-1909.6,1570-1916.2,1570z"/>
<path class="st7" d="M-1874.6,1570h-8.1c-6.6,0-12-5.4-12-12v-49.9c0-6.6,5.4-12,12-12h8.1c6.6,0,12,5.4,12,12v49.9
	C-1862.6,1564.6-1868,1570-1874.6,1570z"/>
<path class="st8" d="M-1832.1,1570h-8.1c-6.6,0-12-5.4-12-12v-49.9c0-6.6,5.4-12,12-12h8.1c6.6,0,12,5.4,12,12v49.9
	C-1820.1,1564.6-1825.5,1570-1832.1,1570z"/>
<path class="st10" d="M-1789,1570h-8.1c-6.6,0-12-5.4-12-12v-49.9c0-6.6,5.4-12,12-12h8.1c6.6,0,12,5.4,12,12v49.9
	C-1777,1564.6-1782.4,1570-1789,1570z"/>
<rect x="-1939" y="1378.5" class="st1" width="80.7" height="19.7"/>
<text transform="matrix(1 0 0 1 -1939.0118 1386.9771)" style="font-family:'MyriadPro-Regular'; font-size:12px;">stark</text>
<path class="st11" d="M-1671,1480.1h-49.9c-6.6,0-12-5.4-12-12v-49.9c0-6.6,5.4-12,12-12h49.9c6.6,0,12,5.4,12,12v49.9
	C-1659,1474.7-1664.4,1480.1-1671,1480.1z"/>
<path class="st12" d="M-1628.2,1480.1h-8.3c-6.6,0-12-5.4-12-12v-49.9c0-6.6,5.4-12,12-12h8.3c6.6,0,12,5.4,12,12v49.9
	C-1616.2,1474.7-1621.6,1480.1-1628.2,1480.1z"/>
<path class="st13" d="M-1585.3,1480.1h-8.1c-6.6,0-12-5.4-12-12v-49.9c0-6.6,5.4-12,12-12h8.1c6.6,0,12,5.4,12,12v49.9
	C-1573.3,1474.7-1578.7,1480.1-1585.3,1480.1z"/>
<path class="st14" d="M-1712.5,1570h-8.1c-6.6,0-12-5.4-12-12v-49.9c0-6.6,5.4-12,12-12h8.1c6.6,0,12,5.4,12,12v49.9
	C-1700.5,1564.6-1705.9,1570-1712.5,1570z"/>
<path class="st15" d="M-1669.4,1570h-8.1c-6.6,0-12-5.4-12-12v-49.9c0-6.6,5.4-12,12-12h8.1c6.6,0,12,5.4,12,12v49.9
	C-1657.4,1564.6-1662.8,1570-1669.4,1570z"/>
<path class="st16" d="M-1628.3,1570h-8.1c-6.6,0-12-5.4-12-12v-49.9c0-6.6,5.4-12,12-12h8.1c6.6,0,12,5.4,12,12v49.9
	C-1616.3,1564.6-1621.7,1570-1628.3,1570z"/>
<rect x="-1735.4" y="1378.5" class="st1" width="80.7" height="19.7"/>
<text transform="matrix(1 0 0 1 -1735.3574 1386.9771)" style="font-family:'MyriadPro-Regular'; font-size:12px;">yahoo</text>
<text transform="matrix(1 0 0 1 -1490.964 1378.4572)"><tspan x="0" y="0" style="font-family:'MyriadPro-Regular'; font-size:12px;">1 color principal</tspan><tspan x="0" y="14.4" style="font-family:'MyriadPro-Regular'; font-size:12px;">1 color acento</tspan><tspan x="0" y="28.8" style="font-family:'MyriadPro-Regular'; font-size:12px;">4 colores semánticos (información, alerta, éxito y aviso)</tspan><tspan x="0" y="43.2" style="font-family:'MyriadPro-Regular'; font-size:12px;">4 colores neutros, que se obtienen del primario</tspan></text>
<rect x="-2128.4" y="1687.6" class="st2" width="652" height="891"/>
<g>
	<defs>
		<rect id="SVGID_1_" x="-1981.4" y="1878.8" width="138" height="162"/>
	</defs>
	<clipPath id="SVGID_2_">
		<use xlink:href="#SVGID_1_"  style="overflow:visible;"/>
	</clipPath>
	<g style="clip-path:url(#SVGID_2_);">
		
			<image style="overflow:visible;" width="138" height="162" xlink:href="83C35BB4A096482.png"  transform="matrix(1 0 0 1 -1981.4467 1878.7869)">
		</image>
	</g>
</g>
<g>
	<defs>
		<rect id="SVGID_3_" x="-1981.4" y="1878.8" width="138" height="162"/>
	</defs>
	<clipPath id="SVGID_4_">
		<use xlink:href="#SVGID_3_"  style="overflow:visible;"/>
	</clipPath>
	<path class="st17" d="M-2249.4,1882.8h122c1.7,0,3,1.3,3,3v146c0,1.7-1.3,3-3,3h-122c-1.7,0-3-1.3-3-3v-146
		C-2252.4,1884.1-2251.1,1882.8-2249.4,1882.8z"/>
</g>
<g>
	<defs>
		<path id="SVGID_5_" d="M-1973.4,1882.8h122c1.7,0,3,1.3,3,3v146c0,1.7-1.3,3-3,3h-122c-1.7,0-3-1.3-3-3v-146
			C-1976.4,1884.1-1975.1,1882.8-1973.4,1882.8z"/>
	</defs>
	<clipPath id="SVGID_6_">
		<use xlink:href="#SVGID_5_"  style="overflow:visible;"/>
	</clipPath>
	<g class="st18">
		<defs>
			<rect id="SVGID_7_" x="-1999.4" y="1755.8" width="652" height="891"/>
		</defs>
		<clipPath id="SVGID_8_">
			<use xlink:href="#SVGID_7_"  style="overflow:visible;"/>
		</clipPath>
		<rect x="-1981.4" y="1877.8" class="st19" width="138" height="162"/>
	</g>
</g>
<g>
	<defs>
		<path id="SVGID_9_" d="M-1973.4,1882.8h122c1.7,0,3,1.3,3,3v91h-128v-91C-1976.4,1884.1-1975.1,1882.8-1973.4,1882.8z"/>
	</defs>
	<clipPath id="SVGID_10_">
		<use xlink:href="#SVGID_9_"  style="overflow:visible;"/>
	</clipPath>
	<g class="st20">
		<defs>
			<rect id="SVGID_11_" x="-1999.4" y="1755.8" width="652" height="891"/>
		</defs>
		<clipPath id="SVGID_12_">
			<use xlink:href="#SVGID_11_"  style="overflow:visible;"/>
		</clipPath>
		<rect x="-1981.4" y="1877.8" class="st21" width="138" height="104"/>
	</g>
</g>
<g>
	<defs>
		<rect id="SVGID_13_" x="-1999.4" y="1755.8" width="652" height="891"/>
	</defs>
	<clipPath id="SVGID_14_">
		<use xlink:href="#SVGID_13_"  style="overflow:visible;"/>
	</clipPath>
	<g style="clip-path:url(#SVGID_14_);">
		<text transform="matrix(1 0 0 1 -1968.4467 1999.7869)" style="fill:#2B2B3F; font-family:'Graphik-Medium'; font-size:8px;">primary</text>
	</g>
</g>
<g>
	<defs>
		<rect id="SVGID_15_" x="-1999.4" y="1755.8" width="652" height="891"/>
	</defs>
	<clipPath id="SVGID_16_">
		<use xlink:href="#SVGID_15_"  style="overflow:visible;"/>
	</clipPath>
	<g class="st22">
		<g>
			<defs>
				<rect id="SVGID_17_" x="-1973.4" y="2004.8" width="44" height="12"/>
			</defs>
			<clipPath id="SVGID_18_">
				<use xlink:href="#SVGID_17_"  style="overflow:visible;"/>
			</clipPath>
			<g class="st23">
				<defs>
					<rect id="SVGID_19_" x="-1968.4" y="2006.8" width="112" height="9"/>
				</defs>
				<clipPath id="SVGID_20_">
					<use xlink:href="#SVGID_19_"  style="overflow:visible;"/>
				</clipPath>
				<g style="clip-path:url(#SVGID_20_);">
					
						<text transform="matrix(1 0 0 1 -1968.4467 2014.2869)" style="fill:#2B2B3F; font-family:'OpenSans-Regular'; font-size:9px;">#</text>
				</g>
				<path class="st24" d="M-1959.7,2010h-1.2v4.2h-0.7v-4.2h-0.9v-0.3l0.9-0.3v-0.3c0-1.2,0.5-1.8,1.6-1.8c0.3,0,0.6,0.1,0.9,0.2
					l-0.2,0.6c-0.3-0.1-0.5-0.1-0.7-0.1c-0.3,0-0.5,0.1-0.6,0.3c-0.1,0.2-0.2,0.5-0.2,0.9v0.3h1.2V2010z M-1956.6,2010h-1.2v4.2
					h-0.7v-4.2h-0.9v-0.3l0.9-0.3v-0.3c0-1.2,0.5-1.8,1.6-1.8c0.3,0,0.6,0.1,0.9,0.2l-0.2,0.6c-0.3-0.1-0.5-0.1-0.7-0.1
					c-0.3,0-0.5,0.1-0.6,0.3c-0.1,0.2-0.2,0.5-0.2,0.9v0.3h1.2V2010z"/>
				<g style="clip-path:url(#SVGID_20_);">
					
						<text transform="matrix(1 0 0 1 -1956.5292 2014.2869)" style="fill:#2B2B3F; font-family:'OpenSans-Regular'; font-size:9px;">3399</text>
				</g>
			</g>
		</g>
	</g>
</g>
<g>
	<defs>
		<rect id="SVGID_21_" x="-1837.4" y="1878.8" width="138" height="162"/>
	</defs>
	<clipPath id="SVGID_22_">
		<use xlink:href="#SVGID_21_"  style="overflow:visible;"/>
	</clipPath>
	<g style="clip-path:url(#SVGID_22_);">
		
			<image style="overflow:visible;" width="138" height="162" xlink:href="83C35BB4A096481.png"  transform="matrix(1 0 0 1 -1837.4467 1878.7869)">
		</image>
	</g>
</g>
<g>
	<defs>
		<rect id="SVGID_23_" x="-1837.4" y="1878.8" width="138" height="162"/>
	</defs>
	<clipPath id="SVGID_24_">
		<use xlink:href="#SVGID_23_"  style="overflow:visible;"/>
	</clipPath>
	<path class="st25" d="M-2105.4,1882.8h122c1.7,0,3,1.3,3,3v146c0,1.7-1.3,3-3,3h-122c-1.7,0-3-1.3-3-3v-146
		C-2108.4,1884.1-2107.1,1882.8-2105.4,1882.8z"/>
</g>
<g>
	<defs>
		<path id="SVGID_25_" d="M-1829.4,1882.8h122c1.7,0,3,1.3,3,3v146c0,1.7-1.3,3-3,3h-122c-1.7,0-3-1.3-3-3v-146
			C-1832.4,1884.1-1831.1,1882.8-1829.4,1882.8z"/>
	</defs>
	<clipPath id="SVGID_26_">
		<use xlink:href="#SVGID_25_"  style="overflow:visible;"/>
	</clipPath>
	<g class="st26">
		<defs>
			<rect id="SVGID_27_" x="-1999.4" y="1755.8" width="652" height="891"/>
		</defs>
		<clipPath id="SVGID_28_">
			<use xlink:href="#SVGID_27_"  style="overflow:visible;"/>
		</clipPath>
		<rect x="-1837.4" y="1877.8" class="st27" width="138" height="162"/>
	</g>
</g>
<g>
	<defs>
		<path id="SVGID_29_" d="M-1829.4,1882.8h122c1.7,0,3,1.3,3,3v91h-128v-91C-1832.4,1884.1-1831.1,1882.8-1829.4,1882.8z"/>
	</defs>
	<clipPath id="SVGID_30_">
		<use xlink:href="#SVGID_29_"  style="overflow:visible;"/>
	</clipPath>
	<g class="st28">
		<defs>
			<rect id="SVGID_31_" x="-1999.4" y="1755.8" width="652" height="891"/>
		</defs>
		<clipPath id="SVGID_32_">
			<use xlink:href="#SVGID_31_"  style="overflow:visible;"/>
		</clipPath>
		<rect x="-1837.4" y="1877.8" class="st29" width="138" height="104"/>
	</g>
</g>
<g>
	<defs>
		<rect id="SVGID_33_" x="-1999.4" y="1755.8" width="652" height="891"/>
	</defs>
	<clipPath id="SVGID_34_">
		<use xlink:href="#SVGID_33_"  style="overflow:visible;"/>
	</clipPath>
	<g style="clip-path:url(#SVGID_34_);">
		<text transform="matrix(1 0 0 1 -1824.4467 1999.7869)" style="fill:#2B2B3F; font-family:'Graphik-Medium'; font-size:8px;">secondary</text>
	</g>
</g>
<g>
	<defs>
		<rect id="SVGID_35_" x="-1999.4" y="1755.8" width="652" height="891"/>
	</defs>
	<clipPath id="SVGID_36_">
		<use xlink:href="#SVGID_35_"  style="overflow:visible;"/>
	</clipPath>
	<g class="st30">
		<g>
			<defs>
				<rect id="SVGID_37_" x="-1829.4" y="2004.8" width="47" height="12"/>
			</defs>
			<clipPath id="SVGID_38_">
				<use xlink:href="#SVGID_37_"  style="overflow:visible;"/>
			</clipPath>
			<g class="st31">
				<defs>
					<rect id="SVGID_39_" x="-1824.4" y="2006.8" width="112" height="9"/>
				</defs>
				<clipPath id="SVGID_40_">
					<use xlink:href="#SVGID_39_"  style="overflow:visible;"/>
				</clipPath>
				<g style="clip-path:url(#SVGID_40_);">
					
						<text transform="matrix(1 0 0 1 -1824.4467 2014.2869)" style="fill:#2B2B3F; font-family:'OpenSans-Regular'; font-size:9px;">#14b5cc</text>
				</g>
			</g>
		</g>
	</g>
</g>
<g>
	<defs>
		<rect id="SVGID_41_" x="-1693.4" y="1878.8" width="138" height="162"/>
	</defs>
	<clipPath id="SVGID_42_">
		<use xlink:href="#SVGID_41_"  style="overflow:visible;"/>
	</clipPath>
	<g style="clip-path:url(#SVGID_42_);">
		
			<image style="overflow:visible;" width="138" height="162" xlink:href="83C35BB4A096480.png"  transform="matrix(1 0 0 1 -1693.4467 1878.7869)">
		</image>
	</g>
</g>
<g>
	<defs>
		<rect id="SVGID_43_" x="-1693.4" y="1878.8" width="138" height="162"/>
	</defs>
	<clipPath id="SVGID_44_">
		<use xlink:href="#SVGID_43_"  style="overflow:visible;"/>
	</clipPath>
	<path class="st32" d="M-1961.4,1882.8h122c1.7,0,3,1.3,3,3v146c0,1.7-1.3,3-3,3h-122c-1.7,0-3-1.3-3-3v-146
		C-1964.4,1884.1-1963.1,1882.8-1961.4,1882.8z"/>
</g>
<g>
	<defs>
		<path id="SVGID_45_" d="M-1685.4,1882.8h122c1.7,0,3,1.3,3,3v146c0,1.7-1.3,3-3,3h-122c-1.7,0-3-1.3-3-3v-146
			C-1688.4,1884.1-1687.1,1882.8-1685.4,1882.8z"/>
	</defs>
	<clipPath id="SVGID_46_">
		<use xlink:href="#SVGID_45_"  style="overflow:visible;"/>
	</clipPath>
	<g class="st33">
		<defs>
			<rect id="SVGID_47_" x="-1999.4" y="1755.8" width="652" height="891"/>
		</defs>
		<clipPath id="SVGID_48_">
			<use xlink:href="#SVGID_47_"  style="overflow:visible;"/>
		</clipPath>
		<rect x="-1693.4" y="1877.8" class="st34" width="138" height="162"/>
	</g>
</g>
<g>
	<defs>
		<path id="SVGID_49_" d="M-1685.4,1882.8h122c1.7,0,3,1.3,3,3v91h-128v-91C-1688.4,1884.1-1687.1,1882.8-1685.4,1882.8z"/>
	</defs>
	<clipPath id="SVGID_50_">
		<use xlink:href="#SVGID_49_"  style="overflow:visible;"/>
	</clipPath>
	<g class="st35">
		<defs>
			<rect id="SVGID_51_" x="-1999.4" y="1755.8" width="652" height="891"/>
		</defs>
		<clipPath id="SVGID_52_">
			<use xlink:href="#SVGID_51_"  style="overflow:visible;"/>
		</clipPath>
		<rect x="-1693.4" y="1877.8" class="st36" width="138" height="104"/>
	</g>
</g>
<g>
	<defs>
		<rect id="SVGID_53_" x="-1999.4" y="1755.8" width="652" height="891"/>
	</defs>
	<clipPath id="SVGID_54_">
		<use xlink:href="#SVGID_53_"  style="overflow:visible;"/>
	</clipPath>
	<g style="clip-path:url(#SVGID_54_);">
		<text transform="matrix(1 0 0 1 -1680.4467 1999.7869)" style="fill:#2B2B3F; font-family:'Graphik-Medium'; font-size:8px;">tertiary</text>
	</g>
</g>
<g>
	<defs>
		<rect id="SVGID_55_" x="-1999.4" y="1755.8" width="652" height="891"/>
	</defs>
	<clipPath id="SVGID_56_">
		<use xlink:href="#SVGID_55_"  style="overflow:visible;"/>
	</clipPath>
	<g class="st37">
		<g>
			<defs>
				<rect id="SVGID_57_" x="-1685.4" y="2004.8" width="44" height="12"/>
			</defs>
			<clipPath id="SVGID_58_">
				<use xlink:href="#SVGID_57_"  style="overflow:visible;"/>
			</clipPath>
			<g class="st38">
				<defs>
					<rect id="SVGID_59_" x="-1680.4" y="2006.8" width="112" height="9"/>
				</defs>
				<clipPath id="SVGID_60_">
					<use xlink:href="#SVGID_59_"  style="overflow:visible;"/>
				</clipPath>
				<g style="clip-path:url(#SVGID_60_);">
					
						<text transform="matrix(1 0 0 1 -1680.4467 2014.2869)" style="fill:#2B2B3F; font-family:'OpenSans-Regular'; font-size:9px;">#</text>
				</g>
				<path class="st39" d="M-1671.7,2010h-1.2v4.2h-0.7v-4.2h-0.9v-0.3l0.9-0.3v-0.3c0-1.2,0.5-1.8,1.6-1.8c0.3,0,0.6,0.1,0.9,0.2
					l-0.2,0.6c-0.3-0.1-0.5-0.1-0.7-0.1c-0.3,0-0.5,0.1-0.6,0.3c-0.1,0.2-0.2,0.5-0.2,0.9v0.3h1.2V2010z M-1668.6,2010h-1.2v4.2
					h-0.7v-4.2h-0.9v-0.3l0.9-0.3v-0.3c0-1.2,0.5-1.8,1.6-1.8c0.3,0,0.6,0.1,0.9,0.2l-0.2,0.6c-0.3-0.1-0.5-0.1-0.7-0.1
					c-0.3,0-0.5,0.1-0.6,0.3c-0.1,0.2-0.2,0.5-0.2,0.9v0.3h1.2V2010z"/>
				<g style="clip-path:url(#SVGID_60_);">
					
						<text transform="matrix(1 0 0 1 -1668.5292 2014.2869)" style="fill:#2B2B3F; font-family:'OpenSans-Regular'; font-size:9px;">b74d</text>
				</g>
			</g>
		</g>
	</g>
</g>
<g>
	<defs>
		<rect id="SVGID_61_" x="-1994.4" y="2081.8" width="160" height="184"/>
	</defs>
	<clipPath id="SVGID_62_">
		<use xlink:href="#SVGID_61_"  style="overflow:visible;"/>
	</clipPath>
	<g style="clip-path:url(#SVGID_62_);">
		
			<image style="overflow:visible;" width="160" height="184" xlink:href="83C35BB4A09648C.png"  transform="matrix(1 0 0 1 -1994.4467 2081.7869)">
		</image>
	</g>
</g>
<g>
	<defs>
		<rect id="SVGID_63_" x="-1994.4" y="2081.8" width="160" height="184"/>
	</defs>
	<clipPath id="SVGID_64_">
		<use xlink:href="#SVGID_63_"  style="overflow:visible;"/>
	</clipPath>
	<path class="st40" d="M-2295.4,2081.8h122c1.7,0,3,1.3,3,3v146c0,1.7-1.3,3-3,3h-122c-1.7,0-3-1.3-3-3v-146
		C-2298.4,2083.1-2297.1,2081.8-2295.4,2081.8z"/>
</g>
<g>
	<defs>
		<path id="SVGID_65_" d="M-1975.4,2081.8h122c1.7,0,3,1.3,3,3v146c0,1.7-1.3,3-3,3h-122c-1.7,0-3-1.3-3-3v-146
			C-1978.4,2083.1-1977.1,2081.8-1975.4,2081.8z"/>
	</defs>
	<clipPath id="SVGID_66_">
		<use xlink:href="#SVGID_65_"  style="overflow:visible;"/>
	</clipPath>
	<g class="st41">
		<defs>
			<rect id="SVGID_67_" x="-1999.4" y="1755.8" width="652" height="891"/>
		</defs>
		<clipPath id="SVGID_68_">
			<use xlink:href="#SVGID_67_"  style="overflow:visible;"/>
		</clipPath>
		<rect x="-1983.4" y="2076.8" class="st42" width="138" height="162"/>
	</g>
</g>
<g>
	<defs>
		<path id="SVGID_69_" d="M-1975.4,2081.8h122c1.7,0,3,1.3,3,3v97h-128v-97C-1978.4,2083.1-1977.1,2081.8-1975.4,2081.8z"/>
	</defs>
	<clipPath id="SVGID_70_">
		<use xlink:href="#SVGID_69_"  style="overflow:visible;"/>
	</clipPath>
	<g class="st43">
		<defs>
			<rect id="SVGID_71_" x="-1999.4" y="1755.8" width="652" height="891"/>
		</defs>
		<clipPath id="SVGID_72_">
			<use xlink:href="#SVGID_71_"  style="overflow:visible;"/>
		</clipPath>
		<rect x="-1983.4" y="2076.8" class="st44" width="138" height="110"/>
	</g>
</g>
<g>
	<defs>
		<rect id="SVGID_73_" x="-1999.4" y="1755.8" width="652" height="891"/>
	</defs>
	<clipPath id="SVGID_74_">
		<use xlink:href="#SVGID_73_"  style="overflow:visible;"/>
	</clipPath>
	<g class="st45">
		<g>
			<defs>
				<rect id="SVGID_75_" x="-1975.4" y="2203.8" width="48" height="12"/>
			</defs>
			<clipPath id="SVGID_76_">
				<use xlink:href="#SVGID_75_"  style="overflow:visible;"/>
			</clipPath>
			<g class="st46">
				<defs>
					<rect id="SVGID_77_" x="-1970.4" y="2205.8" width="112" height="9"/>
				</defs>
				<clipPath id="SVGID_78_">
					<use xlink:href="#SVGID_77_"  style="overflow:visible;"/>
				</clipPath>
				<g style="clip-path:url(#SVGID_78_);">
					
						<text transform="matrix(1 0 0 1 -1970.4467 2213.2869)" style="fill:#2B2B3F; font-family:'OpenSans-Regular'; font-size:9px;">#221a1e</text>
				</g>
			</g>
		</g>
	</g>
	<g style="clip-path:url(#SVGID_74_);">
		<text transform="matrix(1 0 0 1 -1970.4467 2199.7869)" style="fill:#2B2B3F; font-family:'Graphik-Medium'; font-size:8px;">neutral 01</text>
	</g>
</g>
<g>
	<defs>
		<rect id="SVGID_79_" x="-1704.4" y="2081.8" width="160" height="184"/>
	</defs>
	<clipPath id="SVGID_80_">
		<use xlink:href="#SVGID_79_"  style="overflow:visible;"/>
	</clipPath>
	<g style="clip-path:url(#SVGID_80_);">
		
			<image style="overflow:visible;" width="160" height="184" xlink:href="83C35BB4A09648F.png"  transform="matrix(1 0 0 1 -1704.4467 2081.7869)">
		</image>
	</g>
</g>
<g>
	<defs>
		<rect id="SVGID_81_" x="-1704.4" y="2081.8" width="160" height="184"/>
	</defs>
	<clipPath id="SVGID_82_">
		<use xlink:href="#SVGID_81_"  style="overflow:visible;"/>
	</clipPath>
	<path class="st47" d="M-2005.4,2081.8h122c1.7,0,3,1.3,3,3v146c0,1.7-1.3,3-3,3h-122c-1.7,0-3-1.3-3-3v-146
		C-2008.4,2083.1-2007.1,2081.8-2005.4,2081.8z"/>
</g>
<g>
	<defs>
		<path id="SVGID_83_" d="M-1685.4,2081.8h122c1.7,0,3,1.3,3,3v146c0,1.7-1.3,3-3,3h-122c-1.7,0-3-1.3-3-3v-146
			C-1688.4,2083.1-1687.1,2081.8-1685.4,2081.8z"/>
	</defs>
	<clipPath id="SVGID_84_">
		<use xlink:href="#SVGID_83_"  style="overflow:visible;"/>
	</clipPath>
	<g class="st48">
		<defs>
			<rect id="SVGID_85_" x="-1999.4" y="1755.8" width="652" height="891"/>
		</defs>
		<clipPath id="SVGID_86_">
			<use xlink:href="#SVGID_85_"  style="overflow:visible;"/>
		</clipPath>
		<rect x="-1693.4" y="2076.8" class="st49" width="138" height="162"/>
	</g>
</g>
<g>
	<defs>
		<path id="SVGID_87_" d="M-1685.4,2081.8h122c1.7,0,3,1.3,3,3v97h-128v-97C-1688.4,2083.1-1687.1,2081.8-1685.4,2081.8z"/>
	</defs>
	<clipPath id="SVGID_88_">
		<use xlink:href="#SVGID_87_"  style="overflow:visible;"/>
	</clipPath>
	<g class="st50">
		<defs>
			<rect id="SVGID_89_" x="-1999.4" y="1755.8" width="652" height="891"/>
		</defs>
		<clipPath id="SVGID_90_">
			<use xlink:href="#SVGID_89_"  style="overflow:visible;"/>
		</clipPath>
		<rect x="-1693.4" y="2076.8" class="st51" width="138" height="110"/>
	</g>
</g>
<g>
	<defs>
		<rect id="SVGID_91_" x="-1999.4" y="1755.8" width="652" height="891"/>
	</defs>
	<clipPath id="SVGID_92_">
		<use xlink:href="#SVGID_91_"  style="overflow:visible;"/>
	</clipPath>
	<g class="st52">
		<g>
			<defs>
				<rect id="SVGID_93_" x="-1685.4" y="2203.8" width="48" height="12"/>
			</defs>
			<clipPath id="SVGID_94_">
				<use xlink:href="#SVGID_93_"  style="overflow:visible;"/>
			</clipPath>
			<g class="st53">
				<defs>
					<rect id="SVGID_95_" x="-1680.4" y="2205.8" width="112" height="9"/>
				</defs>
				<clipPath id="SVGID_96_">
					<use xlink:href="#SVGID_95_"  style="overflow:visible;"/>
				</clipPath>
				<g style="clip-path:url(#SVGID_96_);">
					
						<text transform="matrix(1 0 0 1 -1680.4467 2213.2869)" style="fill:#2B2B3F; font-family:'OpenSans-Regular'; font-size:9px;">#c1bbbe</text>
				</g>
			</g>
		</g>
	</g>
	<g style="clip-path:url(#SVGID_92_);">
		<text transform="matrix(1 0 0 1 -1680.4467 2199.7869)" style="fill:#2B2B3F; font-family:'Graphik-Medium'; font-size:8px;">neutral 03</text>
	</g>
</g>
<g>
	<defs>
		<rect id="SVGID_97_" x="-1556.4" y="2081.8" width="160" height="184"/>
	</defs>
	<clipPath id="SVGID_98_">
		<use xlink:href="#SVGID_97_"  style="overflow:visible;"/>
	</clipPath>
	<g style="clip-path:url(#SVGID_98_);">
		
			<image style="overflow:visible;" width="160" height="184" xlink:href="83C35BB4A0964B7.png"  transform="matrix(1 0 0 1 -1556.4467 2081.7869)">
		</image>
	</g>
</g>
<g>
	<defs>
		<rect id="SVGID_99_" x="-1556.4" y="2081.8" width="160" height="184"/>
	</defs>
	<clipPath id="SVGID_100_">
		<use xlink:href="#SVGID_99_"  style="overflow:visible;"/>
	</clipPath>
	<path class="st54" d="M-1857.4,2081.8h122c1.7,0,3,1.3,3,3v146c0,1.7-1.3,3-3,3h-122c-1.7,0-3-1.3-3-3v-146
		C-1860.4,2083.1-1859.1,2081.8-1857.4,2081.8z"/>
</g>
<g>
	<defs>
		<path id="SVGID_101_" d="M-1537.4,2081.8h122c1.7,0,3,1.3,3,3v146c0,1.7-1.3,3-3,3h-122c-1.7,0-3-1.3-3-3v-146
			C-1540.4,2083.1-1539.1,2081.8-1537.4,2081.8z"/>
	</defs>
	<clipPath id="SVGID_102_">
		<use xlink:href="#SVGID_101_"  style="overflow:visible;"/>
	</clipPath>
	<g class="st55">
		<defs>
			<rect id="SVGID_103_" x="-1999.4" y="1755.8" width="652" height="891"/>
		</defs>
		<clipPath id="SVGID_104_">
			<use xlink:href="#SVGID_103_"  style="overflow:visible;"/>
		</clipPath>
		<rect x="-1545.4" y="2076.8" class="st56" width="138" height="162"/>
	</g>
</g>
<g>
	<defs>
		<path id="SVGID_105_" d="M-1537.4,2081.8h122c1.7,0,3,1.3,3,3v97h-128v-97C-1540.4,2083.1-1539.1,2081.8-1537.4,2081.8z"/>
	</defs>
	<clipPath id="SVGID_106_">
		<use xlink:href="#SVGID_105_"  style="overflow:visible;"/>
	</clipPath>
	<g class="st57">
		<defs>
			<rect id="SVGID_107_" x="-1999.4" y="1755.8" width="652" height="891"/>
		</defs>
		<clipPath id="SVGID_108_">
			<use xlink:href="#SVGID_107_"  style="overflow:visible;"/>
		</clipPath>
		<rect x="-1545.4" y="2076.8" class="st58" width="138" height="110"/>
	</g>
</g>
<g>
	<defs>
		<rect id="SVGID_109_" x="-1999.4" y="1755.8" width="652" height="891"/>
	</defs>
	<clipPath id="SVGID_110_">
		<use xlink:href="#SVGID_109_"  style="overflow:visible;"/>
	</clipPath>
	<g class="st59">
		<g>
			<defs>
				<rect id="SVGID_111_" x="-1537.4" y="2203.8" width="46" height="12"/>
			</defs>
			<clipPath id="SVGID_112_">
				<use xlink:href="#SVGID_111_"  style="overflow:visible;"/>
			</clipPath>
			<g class="st60">
				<defs>
					<rect id="SVGID_113_" x="-1532.4" y="2205.8" width="112" height="9"/>
				</defs>
				<clipPath id="SVGID_114_">
					<use xlink:href="#SVGID_113_"  style="overflow:visible;"/>
				</clipPath>
				<g style="clip-path:url(#SVGID_114_);">
					
						<text transform="matrix(1 0 0 1 -1532.4467 2213.2869)" style="fill:#2B2B3F; font-family:'OpenSans-Regular'; font-size:9px;">#e4dfe1</text>
				</g>
			</g>
		</g>
	</g>
	<g style="clip-path:url(#SVGID_110_);">
		<text transform="matrix(1 0 0 1 -1532.4467 2199.7869)" style="fill:#2B2B3F; font-family:'Graphik-Medium'; font-size:8px;">neutral 04</text>
	</g>
</g>
<g>
	<defs>
		<rect id="SVGID_115_" x="-1704.4" y="2263.8" width="160" height="184"/>
	</defs>
	<clipPath id="SVGID_116_">
		<use xlink:href="#SVGID_115_"  style="overflow:visible;"/>
	</clipPath>
	<g style="clip-path:url(#SVGID_116_);">
		
			<image style="overflow:visible;" width="160" height="184" xlink:href="83C35BB4A0964B8.png"  transform="matrix(1 0 0 1 -1704.4467 2263.7869)">
		</image>
	</g>
</g>
<g>
	<defs>
		<rect id="SVGID_117_" x="-1704.4" y="2263.8" width="160" height="184"/>
	</defs>
	<clipPath id="SVGID_118_">
		<use xlink:href="#SVGID_117_"  style="overflow:visible;"/>
	</clipPath>
	<path class="st61" d="M-2005.4,2263.8h122c1.7,0,3,1.3,3,3v146c0,1.7-1.3,3-3,3h-122c-1.7,0-3-1.3-3-3v-146
		C-2008.4,2265.1-2007.1,2263.8-2005.4,2263.8z"/>
</g>
<g>
	<defs>
		<path id="SVGID_119_" d="M-1685.4,2263.8h122c1.7,0,3,1.3,3,3v146c0,1.7-1.3,3-3,3h-122c-1.7,0-3-1.3-3-3v-146
			C-1688.4,2265.1-1687.1,2263.8-1685.4,2263.8z"/>
	</defs>
	<clipPath id="SVGID_120_">
		<use xlink:href="#SVGID_119_"  style="overflow:visible;"/>
	</clipPath>
	<g class="st62">
		<defs>
			<rect id="SVGID_121_" x="-1999.4" y="1755.8" width="652" height="891"/>
		</defs>
		<clipPath id="SVGID_122_">
			<use xlink:href="#SVGID_121_"  style="overflow:visible;"/>
		</clipPath>
		<rect x="-1693.4" y="2258.8" class="st63" width="138" height="162"/>
	</g>
</g>
<g>
	<defs>
		<path id="SVGID_123_" d="M-1685.4,2263.8h122c1.7,0,3,1.3,3,3v97h-128v-97C-1688.4,2265.1-1687.1,2263.8-1685.4,2263.8z"/>
	</defs>
	<clipPath id="SVGID_124_">
		<use xlink:href="#SVGID_123_"  style="overflow:visible;"/>
	</clipPath>
	<g class="st64">
		<defs>
			<rect id="SVGID_125_" x="-1999.4" y="1755.8" width="652" height="891"/>
		</defs>
		<clipPath id="SVGID_126_">
			<use xlink:href="#SVGID_125_"  style="overflow:visible;"/>
		</clipPath>
		<rect x="-1693.4" y="2258.8" class="st65" width="138" height="110"/>
	</g>
</g>
<g>
	<defs>
		<rect id="SVGID_127_" x="-1999.4" y="1755.8" width="652" height="891"/>
	</defs>
	<clipPath id="SVGID_128_">
		<use xlink:href="#SVGID_127_"  style="overflow:visible;"/>
	</clipPath>
	<g class="st66">
		<g>
			<defs>
				<rect id="SVGID_129_" x="-1685.4" y="2385.8" width="48" height="12"/>
			</defs>
			<clipPath id="SVGID_130_">
				<use xlink:href="#SVGID_129_"  style="overflow:visible;"/>
			</clipPath>
			<g class="st67">
				<defs>
					<rect id="SVGID_131_" x="-1680.4" y="2387.8" width="112" height="9"/>
				</defs>
				<clipPath id="SVGID_132_">
					<use xlink:href="#SVGID_131_"  style="overflow:visible;"/>
				</clipPath>
				<g style="clip-path:url(#SVGID_132_);">
					
						<text transform="matrix(1 0 0 1 -1680.4467 2395.2869)" style="fill:#2B2B3F; font-family:'OpenSans-Regular'; font-size:9px;">#ededee</text>
				</g>
			</g>
		</g>
	</g>
	<g style="clip-path:url(#SVGID_128_);">
		<text transform="matrix(1 0 0 1 -1680.4467 2381.7869)" style="fill:#2B2B3F; font-family:'Graphik-Medium'; font-size:8px;">grey</text>
	</g>
</g>
<g>
	<defs>
		<rect id="SVGID_133_" x="-1556.4" y="2263.8" width="160" height="184"/>
	</defs>
	<clipPath id="SVGID_134_">
		<use xlink:href="#SVGID_133_"  style="overflow:visible;"/>
	</clipPath>
	<g style="clip-path:url(#SVGID_134_);">
		
			<image style="overflow:visible;" width="160" height="184" xlink:href="83C35BB4A0964B9.png"  transform="matrix(1 0 0 1 -1556.4467 2263.7869)">
		</image>
	</g>
</g>
<g>
	<defs>
		<rect id="SVGID_135_" x="-1556.4" y="2263.8" width="160" height="184"/>
	</defs>
	<clipPath id="SVGID_136_">
		<use xlink:href="#SVGID_135_"  style="overflow:visible;"/>
	</clipPath>
	<path class="st68" d="M-1857.4,2263.8h122c1.7,0,3,1.3,3,3v146c0,1.7-1.3,3-3,3h-122c-1.7,0-3-1.3-3-3v-146
		C-1860.4,2265.1-1859.1,2263.8-1857.4,2263.8z"/>
</g>
<g>
	<defs>
		<path id="SVGID_137_" d="M-1537.4,2263.8h122c1.7,0,3,1.3,3,3v146c0,1.7-1.3,3-3,3h-122c-1.7,0-3-1.3-3-3v-146
			C-1540.4,2265.1-1539.1,2263.8-1537.4,2263.8z"/>
	</defs>
	<clipPath id="SVGID_138_">
		<use xlink:href="#SVGID_137_"  style="overflow:visible;"/>
	</clipPath>
	<g class="st69">
		<defs>
			<rect id="SVGID_139_" x="-1999.4" y="1755.8" width="652" height="891"/>
		</defs>
		<clipPath id="SVGID_140_">
			<use xlink:href="#SVGID_139_"  style="overflow:visible;"/>
		</clipPath>
		<rect x="-1545.4" y="2258.8" class="st70" width="138" height="162"/>
	</g>
</g>
<g>
	<defs>
		<path id="SVGID_141_" d="M-1537.4,2263.8h122c1.7,0,3,1.3,3,3v97h-128v-97C-1540.4,2265.1-1539.1,2263.8-1537.4,2263.8z"/>
	</defs>
	<clipPath id="SVGID_142_">
		<use xlink:href="#SVGID_141_"  style="overflow:visible;"/>
	</clipPath>
	<g class="st71">
		<defs>
			<rect id="SVGID_143_" x="-1999.4" y="1755.8" width="652" height="891"/>
		</defs>
		<clipPath id="SVGID_144_">
			<use xlink:href="#SVGID_143_"  style="overflow:visible;"/>
		</clipPath>
		<rect x="-1545.4" y="2258.8" class="st72" width="138" height="110"/>
	</g>
</g>
<g>
	<defs>
		<rect id="SVGID_145_" x="-1999.4" y="1755.8" width="652" height="891"/>
	</defs>
	<clipPath id="SVGID_146_">
		<use xlink:href="#SVGID_145_"  style="overflow:visible;"/>
	</clipPath>
	<g class="st73">
		<g>
			<defs>
				<rect id="SVGID_147_" x="-1537.4" y="2385.8" width="42" height="12"/>
			</defs>
			<clipPath id="SVGID_148_">
				<use xlink:href="#SVGID_147_"  style="overflow:visible;"/>
			</clipPath>
			<g class="st74">
				<defs>
					<rect id="SVGID_149_" x="-1532.4" y="2387.8" width="112" height="9"/>
				</defs>
				<clipPath id="SVGID_150_">
					<use xlink:href="#SVGID_149_"  style="overflow:visible;"/>
				</clipPath>
				<g style="clip-path:url(#SVGID_150_);">
					
						<text transform="matrix(1 0 0 1 -1532.4467 2395.2869)" style="fill:#2B2B3F; font-family:'OpenSans-Regular'; font-size:9px;">#f6f6f6</text>
				</g>
			</g>
		</g>
	</g>
	<g style="clip-path:url(#SVGID_146_);">
		<text transform="matrix(1 0 0 1 -1532.4467 2381.7869)" style="fill:#2B2B3F; font-family:'Graphik-Medium'; font-size:8px;">grey-light</text>
	</g>
</g>
<g>
	<defs>
		<rect id="SVGID_151_" x="-1849.4" y="2081.8" width="160" height="184"/>
	</defs>
	<clipPath id="SVGID_152_">
		<use xlink:href="#SVGID_151_"  style="overflow:visible;"/>
	</clipPath>
	<g style="clip-path:url(#SVGID_152_);">
		
			<image style="overflow:visible;" width="160" height="184" xlink:href="83C35BB4A0964BA.png"  transform="matrix(1 0 0 1 -1849.4467 2081.7869)">
		</image>
	</g>
</g>
<g>
	<defs>
		<rect id="SVGID_153_" x="-1849.4" y="2081.8" width="160" height="184"/>
	</defs>
	<clipPath id="SVGID_154_">
		<use xlink:href="#SVGID_153_"  style="overflow:visible;"/>
	</clipPath>
	<path class="st75" d="M-2150.4,2081.8h122c1.7,0,3,1.3,3,3v146c0,1.7-1.3,3-3,3h-122c-1.7,0-3-1.3-3-3v-146
		C-2153.4,2083.1-2152.1,2081.8-2150.4,2081.8z"/>
</g>
<g>
	<defs>
		<path id="SVGID_155_" d="M-1830.4,2081.8h122c1.7,0,3,1.3,3,3v146c0,1.7-1.3,3-3,3h-122c-1.7,0-3-1.3-3-3v-146
			C-1833.4,2083.1-1832.1,2081.8-1830.4,2081.8z"/>
	</defs>
	<clipPath id="SVGID_156_">
		<use xlink:href="#SVGID_155_"  style="overflow:visible;"/>
	</clipPath>
	<g class="st76">
		<defs>
			<rect id="SVGID_157_" x="-1999.4" y="1755.8" width="652" height="891"/>
		</defs>
		<clipPath id="SVGID_158_">
			<use xlink:href="#SVGID_157_"  style="overflow:visible;"/>
		</clipPath>
		<rect x="-1838.4" y="2076.8" class="st77" width="138" height="162"/>
	</g>
</g>
<g>
	<defs>
		<path id="SVGID_159_" d="M-1830.4,2081.8h122c1.7,0,3,1.3,3,3v97h-128v-97C-1833.4,2083.1-1832.1,2081.8-1830.4,2081.8z"/>
	</defs>
	<clipPath id="SVGID_160_">
		<use xlink:href="#SVGID_159_"  style="overflow:visible;"/>
	</clipPath>
	<g class="st78">
		<defs>
			<rect id="SVGID_161_" x="-1999.4" y="1755.8" width="652" height="891"/>
		</defs>
		<clipPath id="SVGID_162_">
			<use xlink:href="#SVGID_161_"  style="overflow:visible;"/>
		</clipPath>
		<rect x="-1838.4" y="2076.8" class="st79" width="138" height="110"/>
	</g>
</g>
<g>
	<defs>
		<rect id="SVGID_163_" x="-1999.4" y="1755.8" width="652" height="891"/>
	</defs>
	<clipPath id="SVGID_164_">
		<use xlink:href="#SVGID_163_"  style="overflow:visible;"/>
	</clipPath>
	<g class="st80">
		<g>
			<defs>
				<rect id="SVGID_165_" x="-1830.4" y="2203.8" width="48" height="12"/>
			</defs>
			<clipPath id="SVGID_166_">
				<use xlink:href="#SVGID_165_"  style="overflow:visible;"/>
			</clipPath>
			<g class="st81">
				<defs>
					<rect id="SVGID_167_" x="-1825.4" y="2205.8" width="112" height="9"/>
				</defs>
				<clipPath id="SVGID_168_">
					<use xlink:href="#SVGID_167_"  style="overflow:visible;"/>
				</clipPath>
				<g style="clip-path:url(#SVGID_168_);">
					
						<text transform="matrix(1 0 0 1 -1825.4467 2213.2869)" style="fill:#2B2B3F; font-family:'OpenSans-Regular'; font-size:9px;">#787275</text>
				</g>
			</g>
		</g>
	</g>
	<g style="clip-path:url(#SVGID_164_);">
		<text transform="matrix(1 0 0 1 -1825.4467 2199.7869)" style="fill:#2B2B3F; font-family:'Graphik-Medium'; font-size:8px;">neutral 02</text>
	</g>
</g>
<g>
	<defs>
		<rect id="SVGID_169_" x="-1994.4" y="2445.8" width="160" height="184"/>
	</defs>
	<clipPath id="SVGID_170_">
		<use xlink:href="#SVGID_169_"  style="overflow:visible;"/>
	</clipPath>
	<g style="clip-path:url(#SVGID_170_);">
		
			<image style="overflow:visible;" width="160" height="184" xlink:href="30B3C411B35B8958.png"  transform="matrix(1 0 0 1 -1994.4467 2445.7869)">
		</image>
	</g>
</g>
<g>
	<defs>
		<rect id="SVGID_171_" x="-1994.4" y="2445.8" width="160" height="184"/>
	</defs>
	<clipPath id="SVGID_172_">
		<use xlink:href="#SVGID_171_"  style="overflow:visible;"/>
	</clipPath>
	<path class="st82" d="M-2295.4,2445.8h122c1.7,0,3,1.3,3,3v146c0,1.7-1.3,3-3,3h-122c-1.7,0-3-1.3-3-3v-146
		C-2298.4,2447.1-2297.1,2445.8-2295.4,2445.8z"/>
</g>
<g>
	<defs>
		<path id="SVGID_173_" d="M-1975.4,2445.8h122c1.7,0,3,1.3,3,3v146c0,1.7-1.3,3-3,3h-122c-1.7,0-3-1.3-3-3v-146
			C-1978.4,2447.1-1977.1,2445.8-1975.4,2445.8z"/>
	</defs>
	<clipPath id="SVGID_174_">
		<use xlink:href="#SVGID_173_"  style="overflow:visible;"/>
	</clipPath>
	<g class="st83">
		<defs>
			<rect id="SVGID_175_" x="-1999.4" y="1755.8" width="652" height="891"/>
		</defs>
		<clipPath id="SVGID_176_">
			<use xlink:href="#SVGID_175_"  style="overflow:visible;"/>
		</clipPath>
		<rect x="-1983.4" y="2440.8" class="st84" width="138" height="162"/>
	</g>
</g>
<g>
	<defs>
		<path id="SVGID_177_" d="M-1975.4,2445.8h122c1.7,0,3,1.3,3,3v97h-128v-97C-1978.4,2447.1-1977.1,2445.8-1975.4,2445.8z"/>
	</defs>
	<clipPath id="SVGID_178_">
		<use xlink:href="#SVGID_177_"  style="overflow:visible;"/>
	</clipPath>
	<g class="st85">
		<defs>
			<rect id="SVGID_179_" x="-1999.4" y="1755.8" width="652" height="891"/>
		</defs>
		<clipPath id="SVGID_180_">
			<use xlink:href="#SVGID_179_"  style="overflow:visible;"/>
		</clipPath>
		<rect x="-1983.4" y="2440.8" class="st86" width="138" height="110"/>
	</g>
</g>
<g>
	<defs>
		<rect id="SVGID_181_" x="-1999.4" y="1755.8" width="652" height="891"/>
	</defs>
	<clipPath id="SVGID_182_">
		<use xlink:href="#SVGID_181_"  style="overflow:visible;"/>
	</clipPath>
	<g class="st87">
		<g>
			<defs>
				<rect id="SVGID_183_" x="-1975.4" y="2567.8" width="48" height="12"/>
			</defs>
			<clipPath id="SVGID_184_">
				<use xlink:href="#SVGID_183_"  style="overflow:visible;"/>
			</clipPath>
			<g class="st88">
				<defs>
					<rect id="SVGID_185_" x="-1970.4" y="2569.8" width="112" height="9"/>
				</defs>
				<clipPath id="SVGID_186_">
					<use xlink:href="#SVGID_185_"  style="overflow:visible;"/>
				</clipPath>
				<g style="clip-path:url(#SVGID_186_);">
					
						<text transform="matrix(1 0 0 1 -1970.4467 2577.2869)" style="fill:#2B2B3F; font-family:'OpenSans-Regular'; font-size:9px;">#484582</text>
				</g>
			</g>
		</g>
	</g>
	<g style="clip-path:url(#SVGID_182_);">
		<text transform="matrix(1 0 0 1 -1970.4467 2563.7869)" style="fill:#2B2B3F; font-family:'Graphik-Medium'; font-size:8px;">primary-dark</text>
	</g>
</g>
<g>
	<defs>
		<rect id="SVGID_187_" x="-1848.4" y="2445.8" width="160" height="184"/>
	</defs>
	<clipPath id="SVGID_188_">
		<use xlink:href="#SVGID_187_"  style="overflow:visible;"/>
	</clipPath>
	<g style="clip-path:url(#SVGID_188_);">
		
			<image style="overflow:visible;" width="160" height="184" xlink:href="30B3C411B35B8953.png"  transform="matrix(1 0 0 1 -1848.4467 2445.7869)">
		</image>
	</g>
</g>
<g>
	<defs>
		<rect id="SVGID_189_" x="-1848.4" y="2445.8" width="160" height="184"/>
	</defs>
	<clipPath id="SVGID_190_">
		<use xlink:href="#SVGID_189_"  style="overflow:visible;"/>
	</clipPath>
	<path class="st89" d="M-2149.4,2445.8h122c1.7,0,3,1.3,3,3v146c0,1.7-1.3,3-3,3h-122c-1.7,0-3-1.3-3-3v-146
		C-2152.4,2447.1-2151.1,2445.8-2149.4,2445.8z"/>
</g>
<g>
	<defs>
		<path id="SVGID_191_" d="M-1829.4,2445.8h122c1.7,0,3,1.3,3,3v146c0,1.7-1.3,3-3,3h-122c-1.7,0-3-1.3-3-3v-146
			C-1832.4,2447.1-1831.1,2445.8-1829.4,2445.8z"/>
	</defs>
	<clipPath id="SVGID_192_">
		<use xlink:href="#SVGID_191_"  style="overflow:visible;"/>
	</clipPath>
	<g class="st90">
		<defs>
			<rect id="SVGID_193_" x="-1999.4" y="1755.8" width="652" height="891"/>
		</defs>
		<clipPath id="SVGID_194_">
			<use xlink:href="#SVGID_193_"  style="overflow:visible;"/>
		</clipPath>
		<rect x="-1837.4" y="2440.8" class="st91" width="138" height="162"/>
	</g>
</g>
<g>
	<defs>
		<path id="SVGID_195_" d="M-1829.4,2445.8h122c1.7,0,3,1.3,3,3v97h-128v-97C-1832.4,2447.1-1831.1,2445.8-1829.4,2445.8z"/>
	</defs>
	<clipPath id="SVGID_196_">
		<use xlink:href="#SVGID_195_"  style="overflow:visible;"/>
	</clipPath>
	<g class="st92">
		<defs>
			<rect id="SVGID_197_" x="-1999.4" y="1755.8" width="652" height="891"/>
		</defs>
		<clipPath id="SVGID_198_">
			<use xlink:href="#SVGID_197_"  style="overflow:visible;"/>
		</clipPath>
		<rect x="-1837.4" y="2440.8" class="st93" width="138" height="110"/>
	</g>
</g>
<g>
	<defs>
		<rect id="SVGID_199_" x="-1999.4" y="1755.8" width="652" height="891"/>
	</defs>
	<clipPath id="SVGID_200_">
		<use xlink:href="#SVGID_199_"  style="overflow:visible;"/>
	</clipPath>
	<g class="st94">
		<g>
			<defs>
				<rect id="SVGID_201_" x="-1829.4" y="2567.8" width="49" height="12"/>
			</defs>
			<clipPath id="SVGID_202_">
				<use xlink:href="#SVGID_201_"  style="overflow:visible;"/>
			</clipPath>
			<g class="st95">
				<defs>
					<rect id="SVGID_203_" x="-1824.4" y="2569.8" width="112" height="9"/>
				</defs>
				<clipPath id="SVGID_204_">
					<use xlink:href="#SVGID_203_"  style="overflow:visible;"/>
				</clipPath>
				<g style="clip-path:url(#SVGID_204_);">
					
						<text transform="matrix(1 0 0 1 -1824.4467 2577.2869)" style="fill:#2B2B3F; font-family:'OpenSans-Regular'; font-size:9px;">##</text>
				</g>
				<path class="st96" d="M-1809.9,2573h-1.2v4.2h-0.7v-4.2h-0.9v-0.3l0.9-0.3v-0.3c0-1.2,0.5-1.8,1.6-1.8c0.3,0,0.6,0.1,0.9,0.2
					l-0.2,0.6c-0.3-0.1-0.5-0.1-0.7-0.1c-0.3,0-0.5,0.1-0.6,0.3s-0.2,0.5-0.2,0.9v0.3h1.2V2573z M-1806.8,2573h-1.2v4.2h-0.7v-4.2
					h-0.9v-0.3l0.9-0.3v-0.3c0-1.2,0.5-1.8,1.6-1.8c0.3,0,0.6,0.1,0.9,0.2l-0.2,0.6c-0.3-0.1-0.5-0.1-0.7-0.1
					c-0.3,0-0.5,0.1-0.6,0.3s-0.2,0.5-0.2,0.9v0.3h1.2V2573z"/>
				<g style="clip-path:url(#SVGID_204_);">
					
						<text transform="matrix(1 0 0 1 -1806.7152 2577.2869)" style="fill:#2B2B3F; font-family:'OpenSans-Regular'; font-size:9px;">c9e4</text>
				</g>
			</g>
		</g>
	</g>
	<g style="clip-path:url(#SVGID_200_);">
		<text transform="matrix(1 0 0 1 -1824.4467 2563.7869)" style="fill:#2B2B3F; font-family:'Graphik-Medium'; font-size:8px;">primary-light</text>
	</g>
</g>
<g>
	<defs>
		<rect id="SVGID_205_" x="-1703.4" y="2445.8" width="160" height="184"/>
	</defs>
	<clipPath id="SVGID_206_">
		<use xlink:href="#SVGID_205_"  style="overflow:visible;"/>
	</clipPath>
	<g style="clip-path:url(#SVGID_206_);">
		
			<image style="overflow:visible;" width="160" height="184" xlink:href="30B3C411B35B8954.png"  transform="matrix(1 0 0 1 -1703.4467 2445.7869)">
		</image>
	</g>
</g>
<g>
	<defs>
		<rect id="SVGID_207_" x="-1703.4" y="2445.8" width="160" height="184"/>
	</defs>
	<clipPath id="SVGID_208_">
		<use xlink:href="#SVGID_207_"  style="overflow:visible;"/>
	</clipPath>
	<path class="st97" d="M-2004.4,2445.8h122c1.7,0,3,1.3,3,3v146c0,1.7-1.3,3-3,3h-122c-1.7,0-3-1.3-3-3v-146
		C-2007.4,2447.1-2006.1,2445.8-2004.4,2445.8z"/>
</g>
<g>
	<defs>
		<path id="SVGID_209_" d="M-1684.4,2445.8h122c1.7,0,3,1.3,3,3v146c0,1.7-1.3,3-3,3h-122c-1.7,0-3-1.3-3-3v-146
			C-1687.4,2447.1-1686.1,2445.8-1684.4,2445.8z"/>
	</defs>
	<clipPath id="SVGID_210_">
		<use xlink:href="#SVGID_209_"  style="overflow:visible;"/>
	</clipPath>
	<g class="st98">
		<defs>
			<rect id="SVGID_211_" x="-1999.4" y="1755.8" width="652" height="891"/>
		</defs>
		<clipPath id="SVGID_212_">
			<use xlink:href="#SVGID_211_"  style="overflow:visible;"/>
		</clipPath>
		<rect x="-1692.4" y="2440.8" class="st99" width="138" height="162"/>
	</g>
</g>
<g>
	<defs>
		<path id="SVGID_213_" d="M-1684.4,2445.8h122c1.7,0,3,1.3,3,3v97h-128v-97C-1687.4,2447.1-1686.1,2445.8-1684.4,2445.8z"/>
	</defs>
	<clipPath id="SVGID_214_">
		<use xlink:href="#SVGID_213_"  style="overflow:visible;"/>
	</clipPath>
	<g class="st100">
		<defs>
			<rect id="SVGID_215_" x="-1999.4" y="1755.8" width="652" height="891"/>
		</defs>
		<clipPath id="SVGID_216_">
			<use xlink:href="#SVGID_215_"  style="overflow:visible;"/>
		</clipPath>
		<rect x="-1692.4" y="2440.8" class="st101" width="138" height="110"/>
	</g>
</g>
<g>
	<defs>
		<rect id="SVGID_217_" x="-1999.4" y="1755.8" width="652" height="891"/>
	</defs>
	<clipPath id="SVGID_218_">
		<use xlink:href="#SVGID_217_"  style="overflow:visible;"/>
	</clipPath>
	<g class="st102">
		<g>
			<defs>
				<rect id="SVGID_219_" x="-1684.4" y="2567.8" width="42" height="12"/>
			</defs>
			<clipPath id="SVGID_220_">
				<use xlink:href="#SVGID_219_"  style="overflow:visible;"/>
			</clipPath>
			<g class="st103">
				<defs>
					<rect id="SVGID_221_" x="-1679.4" y="2569.8" width="112" height="9"/>
				</defs>
				<clipPath id="SVGID_222_">
					<use xlink:href="#SVGID_221_"  style="overflow:visible;"/>
				</clipPath>
				<g style="clip-path:url(#SVGID_222_);">
					
						<text transform="matrix(1 0 0 1 -1679.4467 2577.2869)" style="fill:#2B2B3F; font-family:'OpenSans-Regular'; font-size:9px;">#</text>
				</g>
				<path class="st104" d="M-1670.7,2573h-1.2v4.2h-0.7v-4.2h-0.9v-0.3l0.9-0.3v-0.3c0-1.2,0.5-1.8,1.6-1.8c0.3,0,0.6,0.1,0.9,0.2
					l-0.2,0.6c-0.3-0.1-0.5-0.1-0.7-0.1c-0.3,0-0.5,0.1-0.6,0.3s-0.2,0.5-0.2,0.9v0.3h1.2V2573z M-1667.6,2573h-1.2v4.2h-0.7v-4.2
					h-0.9v-0.3l0.9-0.3v-0.3c0-1.2,0.5-1.8,1.6-1.8c0.3,0,0.6,0.1,0.9,0.2l-0.2,0.6c-0.3-0.1-0.5-0.1-0.7-0.1
					c-0.3,0-0.5,0.1-0.6,0.3s-0.2,0.5-0.2,0.9v0.3h1.2V2573z"/>
				<g style="clip-path:url(#SVGID_222_);">
					
						<text transform="matrix(1 0 0 1 -1667.5292 2577.2869)" style="fill:#2B2B3F; font-family:'OpenSans-Regular'; font-size:9px;">ebf5</text>
				</g>
			</g>
		</g>
	</g>
	<g style="clip-path:url(#SVGID_218_);">
		<text transform="matrix(1 0 0 1 -1679.4467 2563.7869)" style="fill:#2B2B3F; font-family:'OpenSans-Bold'; font-size:8px;">primary-lightest</text>
	</g>
</g>
<g>
	<defs>
		<rect id="SVGID_223_" x="-1994.4" y="2263.8" width="160" height="184"/>
	</defs>
	<clipPath id="SVGID_224_">
		<use xlink:href="#SVGID_223_"  style="overflow:visible;"/>
	</clipPath>
	<g style="clip-path:url(#SVGID_224_);">
		
			<image style="overflow:visible;" width="160" height="184" xlink:href="30B3C411B35B8955.png"  transform="matrix(1 0 0 1 -1994.4467 2263.7869)">
		</image>
	</g>
</g>
<g>
	<defs>
		<rect id="SVGID_225_" x="-1994.4" y="2263.8" width="160" height="184"/>
	</defs>
	<clipPath id="SVGID_226_">
		<use xlink:href="#SVGID_225_"  style="overflow:visible;"/>
	</clipPath>
	<path class="st105" d="M-2295.4,2263.8h122c1.7,0,3,1.3,3,3v146c0,1.7-1.3,3-3,3h-122c-1.7,0-3-1.3-3-3v-146
		C-2298.4,2265.1-2297.1,2263.8-2295.4,2263.8z"/>
</g>
<g>
	<defs>
		<path id="SVGID_227_" d="M-1975.4,2263.8h122c1.7,0,3,1.3,3,3v146c0,1.7-1.3,3-3,3h-122c-1.7,0-3-1.3-3-3v-146
			C-1978.4,2265.1-1977.1,2263.8-1975.4,2263.8z"/>
	</defs>
	<clipPath id="SVGID_228_">
		<use xlink:href="#SVGID_227_"  style="overflow:visible;"/>
	</clipPath>
	<g class="st106">
		<defs>
			<rect id="SVGID_229_" x="-1999.4" y="1755.8" width="652" height="891"/>
		</defs>
		<clipPath id="SVGID_230_">
			<use xlink:href="#SVGID_229_"  style="overflow:visible;"/>
		</clipPath>
		<rect x="-1983.4" y="2258.8" class="st107" width="138" height="162"/>
	</g>
</g>
<g>
	<defs>
		<path id="SVGID_231_" d="M-1975.4,2263.8h122c1.7,0,3,1.3,3,3v97h-128v-97C-1978.4,2265.1-1977.1,2263.8-1975.4,2263.8z"/>
	</defs>
	<clipPath id="SVGID_232_">
		<use xlink:href="#SVGID_231_"  style="overflow:visible;"/>
	</clipPath>
	<g class="st108">
		<defs>
			<rect id="SVGID_233_" x="-1999.4" y="1755.8" width="652" height="891"/>
		</defs>
		<clipPath id="SVGID_234_">
			<use xlink:href="#SVGID_233_"  style="overflow:visible;"/>
		</clipPath>
		<rect x="-1983.4" y="2258.8" class="st109" width="138" height="110"/>
	</g>
</g>
<g>
	<defs>
		<rect id="SVGID_235_" x="-1999.4" y="1755.8" width="652" height="891"/>
	</defs>
	<clipPath id="SVGID_236_">
		<use xlink:href="#SVGID_235_"  style="overflow:visible;"/>
	</clipPath>
	<g class="st110">
		<g>
			<defs>
				<rect id="SVGID_237_" x="-1975.4" y="2385.8" width="44" height="12"/>
			</defs>
			<clipPath id="SVGID_238_">
				<use xlink:href="#SVGID_237_"  style="overflow:visible;"/>
			</clipPath>
			<g class="st111">
				<defs>
					<rect id="SVGID_239_" x="-1970.4" y="2387.8" width="112" height="9"/>
				</defs>
				<clipPath id="SVGID_240_">
					<use xlink:href="#SVGID_239_"  style="overflow:visible;"/>
				</clipPath>
				<g style="clip-path:url(#SVGID_240_);">
					
						<text transform="matrix(1 0 0 1 -1970.4467 2395.2869)" style="fill:#2B2B3F; font-family:'OpenSans-Regular'; font-size:9px;">#</text>
				</g>
				<path class="st112" d="M-1961.7,2391h-1.2v4.2h-0.7v-4.2h-0.9v-0.3l0.9-0.3v-0.3c0-1.2,0.5-1.8,1.6-1.8c0.3,0,0.6,0.1,0.9,0.2
					l-0.2,0.6c-0.3-0.1-0.5-0.1-0.7-0.1c-0.3,0-0.5,0.1-0.6,0.3s-0.2,0.5-0.2,0.9v0.3h1.2V2391z M-1958.6,2391h-1.2v4.2h-0.7v-4.2
					h-0.9v-0.3l0.9-0.3v-0.3c0-1.2,0.5-1.8,1.6-1.8c0.3,0,0.6,0.1,0.9,0.2l-0.2,0.6c-0.3-0.1-0.5-0.1-0.7-0.1
					c-0.3,0-0.5,0.1-0.6,0.3s-0.2,0.5-0.2,0.9v0.3h1.2V2391z"/>
				<g style="clip-path:url(#SVGID_240_);">
					
						<text transform="matrix(1 0 0 1 -1958.5292 2395.2869)" style="fill:#2B2B3F; font-family:'OpenSans-Regular'; font-size:9px;">7676</text>
				</g>
			</g>
		</g>
	</g>
	<g style="clip-path:url(#SVGID_236_);">
		<text transform="matrix(1 0 0 1 -1970.4467 2381.7869)" style="fill:#2B2B3F; font-family:'Graphik-Medium'; font-size:8px;">error</text>
	</g>
</g>
<g>
	<defs>
		<rect id="SVGID_241_" x="-1849.4" y="2263.8" width="160" height="184"/>
	</defs>
	<clipPath id="SVGID_242_">
		<use xlink:href="#SVGID_241_"  style="overflow:visible;"/>
	</clipPath>
	<g style="clip-path:url(#SVGID_242_);">
		
			<image style="overflow:visible;" width="160" height="184" xlink:href="30B3C411B35B8956.png"  transform="matrix(1 0 0 1 -1849.4467 2263.7869)">
		</image>
	</g>
</g>
<g>
	<defs>
		<rect id="SVGID_243_" x="-1849.4" y="2263.8" width="160" height="184"/>
	</defs>
	<clipPath id="SVGID_244_">
		<use xlink:href="#SVGID_243_"  style="overflow:visible;"/>
	</clipPath>
	<path class="st113" d="M-2150.4,2263.8h122c1.7,0,3,1.3,3,3v146c0,1.7-1.3,3-3,3h-122c-1.7,0-3-1.3-3-3v-146
		C-2153.4,2265.1-2152.1,2263.8-2150.4,2263.8z"/>
</g>
<g>
	<defs>
		<path id="SVGID_245_" d="M-1830.4,2263.8h122c1.7,0,3,1.3,3,3v146c0,1.7-1.3,3-3,3h-122c-1.7,0-3-1.3-3-3v-146
			C-1833.4,2265.1-1832.1,2263.8-1830.4,2263.8z"/>
	</defs>
	<clipPath id="SVGID_246_">
		<use xlink:href="#SVGID_245_"  style="overflow:visible;"/>
	</clipPath>
	<g class="st114">
		<defs>
			<rect id="SVGID_247_" x="-1999.4" y="1755.8" width="652" height="891"/>
		</defs>
		<clipPath id="SVGID_248_">
			<use xlink:href="#SVGID_247_"  style="overflow:visible;"/>
		</clipPath>
		<rect x="-1838.4" y="2258.8" class="st115" width="138" height="162"/>
	</g>
</g>
<g>
	<defs>
		<path id="SVGID_249_" d="M-1830.4,2263.8h122c1.7,0,3,1.3,3,3v97h-128v-97C-1833.4,2265.1-1832.1,2263.8-1830.4,2263.8z"/>
	</defs>
	<clipPath id="SVGID_250_">
		<use xlink:href="#SVGID_249_"  style="overflow:visible;"/>
	</clipPath>
	<g class="st116">
		<defs>
			<rect id="SVGID_251_" x="-1999.4" y="1755.8" width="652" height="891"/>
		</defs>
		<clipPath id="SVGID_252_">
			<use xlink:href="#SVGID_251_"  style="overflow:visible;"/>
		</clipPath>
		<rect x="-1838.4" y="2258.8" class="st117" width="138" height="110"/>
	</g>
</g>
<g>
	<defs>
		<rect id="SVGID_253_" x="-1999.4" y="1755.8" width="652" height="891"/>
	</defs>
	<clipPath id="SVGID_254_">
		<use xlink:href="#SVGID_253_"  style="overflow:visible;"/>
	</clipPath>
	<g class="st118">
		<g>
			<defs>
				<rect id="SVGID_255_" x="-1830.4" y="2385.8" width="48" height="12"/>
			</defs>
			<clipPath id="SVGID_256_">
				<use xlink:href="#SVGID_255_"  style="overflow:visible;"/>
			</clipPath>
			<g class="st119">
				<defs>
					<rect id="SVGID_257_" x="-1825.4" y="2387.8" width="112" height="9"/>
				</defs>
				<clipPath id="SVGID_258_">
					<use xlink:href="#SVGID_257_"  style="overflow:visible;"/>
				</clipPath>
				<g style="clip-path:url(#SVGID_258_);">
					
						<text transform="matrix(1 0 0 1 -1825.4467 2395.2869)" style="fill:#2B2B3F; font-family:'OpenSans-Regular'; font-size:9px;">#7ad3a2</text>
				</g>
			</g>
		</g>
	</g>
	<g style="clip-path:url(#SVGID_254_);">
		<text transform="matrix(1 0 0 1 -1825.4467 2381.7869)" style="fill:#2B2B3F; font-family:'Graphik-Medium'; font-size:8px;">success</text>
	</g>
</g>
<g>
	<circle class="st3" cx="262.9" cy="30.5" r="24"/>
	<g>
		<path class="st2" d="M278.2,22.6l-1.1,0.9c2.1,4.1,2.4,9.2,0.1,14.2c-2.1,4.4-6.2,7.6-11,8.5c-4.8,0.9-9.2-0.3-12.6-2.8l1.6-1.4
			l-5.1-1.7l0.9,5.3l1.6-1.4c2.9,2.2,6.6,3.6,10.7,3.5c7.6-0.1,14.3-5.3,16.3-12.6C280.8,30.7,280.2,26.3,278.2,22.6z"/>
		<path class="st2" d="M247.8,25.7c2-6.3,7.8-10.7,14.3-11c3.6-0.2,6.8,0.8,9.5,2.5l-1.2,1.3l5.3,1.1l-1.4-5.2l-1.7,1.8
			c-2.9-2-6.5-3.1-10.5-2.9c-7.3,0.3-13.8,5.4-15.7,12.5c-1.2,4.4-0.7,8.8,1.1,12.4l1.1-0.9C246.9,33.9,246.5,29.8,247.8,25.7z"/>
	</g>
</g>
<g>
	<circle class="st3" cx="29.9" cy="30.5" r="24"/>
	<g>
		<path class="st4" d="M80,36.8v5.1H64.7V16.5h5.1v20.3H80z"/>
		<path class="st4" d="M80.9,29.2c0-7.3,5.9-13.2,13.2-13.2s13.2,6,13.2,13.2s-6,13.1-13.2,13.1C86.9,42.4,80.9,36.4,80.9,29.2z
			 M102.2,29.2c0-4.4-3.6-8.1-8.1-8.1c-4.4,0-8,3.6-8,8.1c0,4.4,3.6,8,8,8C98.6,37.2,102.2,33.6,102.2,29.2z"/>
		<path class="st4" d="M126,36.8v5.1h-15.3V16.5h5.1v20.3H126z"/>
		<path class="st4" d="M144.3,38.3h-10.2l-1.6,3.5H127l12.1-26h0.2l12.1,26h-5.5L144.3,38.3z M142.3,34l-3.1-6.8l-3.1,6.8H142.3z"/>
		<path class="st4" d="M153.9,16.5h8.9c4.9,0,8.9,3.9,8.9,8.6s-4,8.6-8.9,8.6H159V42h-5.1V16.5z M166.7,25c0-1.9-1.7-3.5-3.8-3.5
			h-3.8v7h3.8C165,28.6,166.7,27,166.7,25z"/>
		<path class="st4" d="M185.3,38.3h-10.1l-1.6,3.5h-5.5l12.1-26h0.2l12.1,26H187L185.3,38.3z M183.4,34l-3.1-6.8l-3.1,6.8H183.4z"/>
		<path class="st4" d="M195.5,31l-7.9-14.5h5.8l4.6,8.8l4.6-8.8h5.8L200.5,31v10.9h-5.1V31H195.5z"/>
	</g>
	<g>
		<path class="st2" d="M45.2,22.6l-1.1,0.9c2.1,4.1,2.4,9.2,0.1,14.2c-2.1,4.4-6.2,7.6-11,8.5s-9.2-0.3-12.6-2.8l1.6-1.4l-5.1-1.7
			l0.9,5.3l1.6-1.4c2.9,2.2,6.6,3.6,10.7,3.5c7.6-0.1,14.3-5.3,16.3-12.6C47.8,30.7,47.2,26.3,45.2,22.6z"/>
		<path class="st2" d="M14.8,25.7c2-6.3,7.8-10.7,14.3-11c3.6-0.2,6.8,0.8,9.5,2.5l-1.2,1.3l5.3,1.1l-1.4-5.2l-1.7,1.8
			c-2.9-2-6.5-3.1-10.5-2.9c-7.3,0.3-13.8,5.4-15.7,12.5c-1.2,4.4-0.7,8.8,1.1,12.4l1.1-0.9C13.9,33.9,13.5,29.8,14.8,25.7z"/>
	</g>
</g>
</svg>
